<?xml version="1.0" encoding="UTF-8"?><svg id="Layer_1" xmlns="http://www.w3.org/2000/svg" viewBox="0 0 144 144"><defs><style>.cls-1{fill:#212121;}.cls-1,.cls-2{stroke-width:0px;}.cls-2{fill:#fff;}</style></defs><rect class="cls-1" x="59.57" y="34.8" width="24.87" height="74.4" transform="translate(-.21 143.79) rotate(-89.83)"/><path class="cls-2" d="M79.55,78.19c-1.2.57-2.02.69-4.52.68l.04-13.72c2.45,0,3.57.22,4.68.89,1.74,1.09,2.58,2.99,2.57,5.86-.01,3.44-.89,5.43-2.77,6.29M80.13,64.92c-1.15-.34-1.53-.37-4.16-.38h-3.83s0,.6,0,.6l-.04,13.72v.6s4.13.01,4.13.01c2.75,0,3.96-.16,5.28-.8,2.42-1.2,3.94-3.7,3.95-6.59.01-3.47-2.03-6.22-5.32-7.16"/><path class="cls-2" d="M48.96,71.71h.17c3.26.01,4.74-.03,4.73,3.57-.01,3.6-2.54,3.52-4.86,3.51h-.67s.02-7.08.02-7.08v-.48s.02-6.15.02-6.15h1.2c2.62.01,4.16.03,4.15,3.09,0,2.78-2.17,3.04-4.09,3.06h-.19s-.49.48-.49.48ZM52.63,71.48s3.6.01,3.61-3.3c.01-3.68-4.44-3.69-6.33-3.7h-4.46s0,.59,0,.59l-.04,13.71v.6s5.6.02,5.6.02c2.6,0,5.76-.44,5.77-4.11.01-3.67-4.15-3.81-4.15-3.81"/><path class="cls-2" d="M90.74,71.83h.18c3.26.01,4.73-.03,4.72,3.57-.01,3.6-2.54,3.52-4.86,3.51h-.66s.02-7.08.02-7.08v-.48s.02-6.15.02-6.15h1.21c2.62.01,4.16.03,4.16,3.09,0,2.78-2.18,3.04-4.08,3.06h-.2s-.49.48-.49.48ZM94.42,71.6s3.59.01,3.6-3.3c.01-3.68-4.43-3.69-6.33-3.7h-4.46s-.04,14.91-.04,14.91l5.61.02c2.59,0,5.76-.44,5.77-4.11.01-3.67-4.15-3.81-4.15-3.81"/><path class="cls-2" d="M69.63,75.89c-.3-2.78-1.15-4.04-3.74-4.39h0c.82-.07,3.6-.51,3.61-3.29.01-3.68-4.67-3.69-6.58-3.69h-4.21s-.04,14.91-.04,14.91h2.92s.04-14.31.04-14.31h.99c2.61.01,4.14.04,4.13,3.09,0,2.75-2.14,3.04-4.03,3.06l-.49.48h.84c2.4,0,3.35,1.57,3.56,3.7l.36,4h3.08s-.43-3.56-.43-3.56Z"/></svg>