<?xml version="1.0" encoding="UTF-8"?><svg id="Layer_1" xmlns="http://www.w3.org/2000/svg" xmlns:xlink="http://www.w3.org/1999/xlink" viewBox="0 0 144 144"><defs><style>.cls-1{fill:url(#linear-gradient);}.cls-1,.cls-2,.cls-3{stroke-width:0px;}.cls-2{fill:#191919;}.cls-3{fill:#000;}</style><linearGradient id="linear-gradient" x1="22.41" y1="72" x2="54.71" y2="72" gradientUnits="userSpaceOnUse"><stop offset="0" stop-color="#888"/><stop offset="1" stop-color="#717171"/></linearGradient></defs><path class="cls-3" d="M35.39,69.09s0,0,0,0c0-.02,0-.03,0-.05-1.4-7.98-8.36-14.05-16.74-14.05v.05c0,8.48,9.51,13.61,16.74,14.05Z"/><path class="cls-3" d="M18.65,88.95v.05c8.38,0,15.34-6.07,16.74-14.05,0-.02,0-.03,0-.05,0,0,0,0,0,0-7.22.43-16.74,5.57-16.74,14.05Z"/><path class="cls-3" d="M39.39,74.91s0,0,0,0c0,.02,0,.03,0,.05,1.4,7.98,8.36,14.05,16.74,14.05v-.05c0-8.48-9.51-13.61-16.74-14.04Z"/><path class="cls-3" d="M56.13,55.05v-.05c-8.38,0-15.34,6.07-16.74,14.05,0,.02,0,.03,0,.05,0,0,0,0,0,0,7.22-.43,16.74-5.57,16.74-14.04Z"/><path class="cls-1" d="M56.13,55.05c0,8.48-9.51,13.61-16.74,14.05-.66.04-1.32.07-2,.07s-1.34-.03-2-.07c-7.22-.43-16.74-5.57-16.74-14.05v16.95s0,16.95,0,16.95c0-8.48,9.51-13.61,16.74-14.05.66-.04,1.32-.07,2-.07s1.34.03,2,.07c7.22.43,16.74,5.57,16.74,14.05v-16.95s0-16.95,0-16.95Z"/><path class="cls-2" d="M66.38,57.85h3.43c.54,0,1.04.06,1.51.17.47.11.91.27,1.3.49.4.21.75.47,1.07.78.31.3.58.65.8,1.04.22.39.38.81.5,1.27.12.46.17.95.17,1.47s-.06,1.01-.17,1.47c-.12.46-.28.88-.5,1.27-.22.39-.48.73-.8,1.04-.31.31-.67.56-1.07.78-.4.21-.83.37-1.3.49s-.98.17-1.51.17h-3.43v-10.42ZM69.81,66.85c.6,0,1.13-.09,1.6-.26.47-.17.87-.42,1.2-.75.33-.33.58-.72.75-1.19.17-.47.26-1,.26-1.59s-.09-1.12-.26-1.59c-.17-.47-.43-.87-.75-1.19-.33-.33-.73-.58-1.2-.75-.47-.17-1.01-.26-1.6-.26h-1.94v7.58h1.94Z"/><path class="cls-2" d="M77.83,59.31h-1.55v-1.82h1.55v1.82ZM77.8,68.27h-1.48v-8.04h1.48v8.04Z"/><path class="cls-2" d="M86.7,60.24v6.58c0,.44-.04.86-.13,1.25-.09.39-.21.75-.37,1.08-.16.33-.35.62-.58.88-.23.26-.49.48-.78.67-.29.18-.61.32-.95.42-.35.1-.71.14-1.11.14-.34,0-.66-.03-.96-.1-.31-.07-.59-.17-.85-.3-.26-.13-.5-.28-.72-.46-.21-.18-.4-.38-.55-.61-.15-.22-.27-.47-.35-.73-.08-.26-.12-.53-.12-.82h1.48c0,.16.02.32.07.47.05.15.12.29.21.42.09.13.2.25.33.35s.27.2.42.27c.16.07.32.13.5.17.18.04.36.06.56.06.37,0,.7-.08,1-.23.3-.15.56-.36.77-.64.21-.28.37-.61.49-1s.17-.82.17-1.3v-1.27c-.1.39-.25.75-.44,1.07-.19.32-.41.59-.67.81-.26.22-.55.4-.87.52-.32.12-.67.18-1.04.18-.32,0-.63-.05-.92-.14-.29-.09-.56-.22-.81-.39-.25-.17-.47-.37-.67-.62-.2-.24-.37-.51-.51-.81-.14-.3-.25-.63-.33-.98-.08-.35-.11-.73-.11-1.12s.04-.77.11-1.12c.08-.35.19-.68.33-.98.14-.3.31-.57.51-.81s.43-.45.67-.61c.25-.17.52-.3.81-.39.29-.09.6-.14.92-.14.37,0,.72.06,1.04.18.32.12.61.29.87.52.26.22.48.5.67.81.19.32.33.67.44,1.07v-2.36h1.48ZM85.22,64.07c0-.43-.06-.82-.17-1.16-.11-.34-.28-.63-.49-.87-.21-.24-.48-.42-.79-.54-.31-.13-.67-.19-1.06-.19s-.72.06-1.02.18c-.3.12-.55.3-.75.53-.2.23-.36.52-.46.86-.1.34-.16.74-.16,1.18s.05.84.16,1.18.26.63.46.86c.2.23.45.41.75.53.3.12.64.18,1.02.18s.75-.06,1.06-.19c.31-.13.58-.31.79-.54.22-.24.38-.53.49-.87.11-.34.17-.73.17-1.16Z"/><path class="cls-2" d="M89.56,59.31h-1.55v-1.82h1.55v1.82ZM89.52,68.27h-1.48v-8.04h1.48v8.04Z"/><path class="cls-2" d="M95.51,68.21c-.61.18-1.17.28-1.66.28-.4,0-.75-.06-1.06-.18-.31-.12-.57-.3-.77-.55-.21-.24-.37-.54-.48-.9-.11-.36-.16-.77-.16-1.24v-4.14h-1.09v-1.24h1.09v-1.85h1.48v1.85h2.66v1.24h-2.66v4.14c0,.53.1.93.3,1.18.2.25.52.38.95.38.17,0,.37-.02.6-.06.23-.04.5-.1.81-.18v1.28Z"/><path class="cls-2" d="M96.44,63.04c0-.46.09-.88.26-1.25.17-.37.41-.69.73-.95.32-.26.7-.46,1.15-.6.45-.14.96-.21,1.52-.21.6,0,1.13.08,1.6.24.47.16.87.39,1.2.69.33.3.58.66.75,1.1.17.43.26.92.26,1.47v4.77h-1.48v-2.16c-.1.37-.24.7-.44.99-.2.29-.44.54-.72.75-.28.21-.61.36-.97.47-.36.11-.75.16-1.18.16s-.84-.06-1.2-.17c-.36-.12-.67-.28-.92-.49-.26-.21-.45-.47-.59-.76-.14-.3-.21-.63-.21-.99s.07-.7.22-.99c.14-.29.35-.54.62-.75.27-.21.6-.36.99-.47.39-.11.82-.16,1.31-.16h3.1v-.19c0-.33-.06-.63-.17-.89-.11-.27-.27-.49-.47-.68s-.45-.33-.74-.43c-.29-.1-.62-.15-.98-.15s-.69.04-.96.12c-.27.08-.49.19-.67.34-.18.15-.31.32-.39.53-.09.21-.13.44-.13.69h-1.48ZM99.32,64.93c-.55,0-.96.09-1.24.28-.28.18-.42.45-.42.81,0,.19.04.36.12.51.08.15.2.27.36.37.16.1.35.18.58.23.23.05.5.08.8.08.43,0,.82-.05,1.18-.15.36-.1.66-.24.92-.42.26-.18.46-.4.6-.65.14-.25.21-.53.21-.83v-.22h-3.12Z"/><path class="cls-2" d="M106.69,68.27h-1.48v-10.79h1.48v10.79Z"/><path class="cls-2" d="M66.29,74.32h3.98c.55,0,1.07.06,1.55.17.48.12.93.28,1.34.51.41.22.78.49,1.1.81.32.32.6.68.83,1.08.23.4.4.85.52,1.33.12.48.18,1,.18,1.55s-.06,1.07-.18,1.55c-.12.48-.29.93-.52,1.33-.23.4-.5.77-.83,1.08-.32.32-.69.59-1.1.81s-.86.39-1.34.51c-.49.12-1,.17-1.55.17h-3.98v-10.92ZM70.21,83.17c.5,0,.94-.07,1.33-.22.39-.15.72-.37.99-.65.27-.29.47-.64.61-1.06.14-.42.21-.9.21-1.45s-.07-1.03-.21-1.45c-.14-.42-.35-.78-.61-1.06-.27-.29-.6-.51-.99-.65-.39-.15-.84-.22-1.33-.22h-1.54v6.78h1.54Z"/><path class="cls-2" d="M79.12,75.94h-2.33v-2h2.33v2ZM79.1,85.24h-2.29v-8.42h2.29v8.42Z"/><path class="cls-2" d="M83.87,76.6c.62,0,1.17.07,1.66.2.48.13.89.33,1.23.58.33.25.59.56.76.92.17.36.26.77.26,1.23h-2.26c0-.2-.03-.37-.1-.53-.07-.16-.17-.29-.31-.4-.14-.11-.3-.19-.5-.25-.2-.06-.43-.09-.69-.09-.23,0-.44.02-.63.06-.19.04-.35.1-.49.18-.13.08-.24.17-.32.29-.08.11-.11.24-.11.37,0,.17.05.3.15.41.1.11.23.19.39.26.16.07.35.12.56.17.21.04.43.08.66.12l.56.1c.23.04.47.08.72.13.25.05.5.11.75.19.25.08.48.18.71.3.23.12.43.27.6.45.17.18.31.39.41.64.1.25.15.54.15.87,0,.42-.09.8-.26,1.13-.17.33-.43.61-.77.84-.34.23-.75.4-1.24.52-.49.12-1.06.18-1.7.18-.67,0-1.26-.07-1.77-.2-.51-.13-.94-.33-1.28-.58-.34-.25-.61-.57-.78-.94-.18-.37-.26-.8-.26-1.28h2.26c0,.42.15.75.45.97.3.23.76.34,1.37.34.27,0,.51-.02.73-.06.22-.04.4-.1.55-.19.15-.08.26-.18.34-.3.08-.12.12-.25.12-.4,0-.18-.05-.33-.15-.44-.1-.11-.23-.21-.4-.28-.17-.08-.37-.14-.6-.19-.23-.05-.48-.1-.75-.15l-.56-.1c-.21-.04-.43-.08-.67-.13-.24-.05-.48-.11-.71-.19-.24-.08-.47-.17-.69-.29-.22-.11-.41-.26-.58-.43-.17-.17-.3-.38-.4-.61-.1-.24-.15-.51-.15-.83,0-.4.09-.77.26-1.09.17-.32.42-.6.74-.82.32-.23.72-.4,1.18-.52.46-.12.99-.18,1.58-.18Z"/><path class="cls-2" d="M94.08,85.18c-.71.19-1.33.29-1.89.29-.93,0-1.63-.27-2.11-.82-.48-.54-.72-1.35-.72-2.42v-3.59h-1.05v-1.82h1.05v-1.94h2.29v1.94h2.42v1.82h-2.42v3.59c0,.48.09.84.27,1.06.18.22.46.33.85.33.16,0,.34-.02.55-.05.21-.03.46-.09.75-.16v1.76Z"/><path class="cls-2" d="M97.3,85.24h-2.29v-8.42h2.29v2.92c.08-.45.19-.86.34-1.22.15-.36.34-.67.57-.92.23-.25.5-.45.82-.58.32-.14.68-.2,1.09-.2h.5v2.15h-.89c-.47,0-.86.05-1.17.15-.31.1-.56.24-.75.44-.19.2-.32.45-.4.75-.08.3-.12.66-.12,1.08v3.85Z"/><path class="cls-2" d="M103.56,75.94h-2.33v-2h2.33v2ZM103.53,85.24h-2.29v-8.42h2.29v8.42Z"/><path class="cls-2" d="M106.71,81.03c0,.39.04.74.13,1.04.09.3.22.56.39.77.17.21.37.37.62.48.24.11.52.16.83.16.26,0,.49-.04.69-.12.2-.08.37-.19.52-.32.14-.14.26-.3.35-.49.09-.19.16-.4.2-.63h2.28c-.07.52-.21,1-.43,1.44-.22.44-.5.81-.85,1.12-.35.31-.76.56-1.22.73-.47.17-.98.26-1.54.26-.42,0-.82-.05-1.19-.14-.37-.1-.72-.23-1.03-.41-.32-.18-.6-.4-.85-.66-.25-.26-.47-.55-.64-.88-.18-.33-.31-.69-.41-1.08-.09-.39-.14-.81-.14-1.26s.05-.87.14-1.26c.09-.39.23-.75.41-1.08.18-.33.39-.62.64-.88s.54-.48.85-.66c.32-.18.66-.32,1.03-.41.37-.09.77-.14,1.19-.14.56,0,1.08.09,1.54.26.47.17.87.42,1.22.73.35.31.63.69.85,1.12.22.44.36.91.43,1.44h-2.28c-.04-.23-.11-.44-.2-.63-.09-.19-.21-.36-.35-.49-.14-.14-.32-.25-.52-.32-.2-.08-.43-.11-.69-.11-.31,0-.59.05-.83.16-.24.11-.45.27-.62.48-.17.21-.3.46-.39.77-.09.3-.13.65-.13,1.04Z"/><path class="cls-2" d="M118.78,85.18c-.71.19-1.33.29-1.89.29-.93,0-1.63-.27-2.11-.82-.48-.54-.72-1.35-.72-2.42v-3.59h-1.05v-1.82h1.05v-1.94h2.29v1.94h2.42v1.82h-2.42v3.59c0,.48.09.84.27,1.06.18.22.46.33.85.33.16,0,.34-.02.55-.05.21-.03.46-.09.75-.16v1.76Z"/><path class="cls-2" d="M123.18,76.6c.62,0,1.17.07,1.66.2.48.13.89.33,1.23.58.33.25.59.56.76.92.17.36.26.77.26,1.23h-2.26c0-.2-.03-.37-.1-.53-.07-.16-.17-.29-.31-.4-.14-.11-.3-.19-.5-.25-.2-.06-.43-.09-.69-.09-.23,0-.44.02-.63.06-.19.04-.35.1-.49.18-.13.08-.24.17-.32.29-.08.11-.11.24-.11.37,0,.17.05.3.15.41.1.11.23.19.39.26.16.07.35.12.56.17.21.04.43.08.66.12l.56.1c.23.04.47.08.72.13.25.05.5.11.75.19.25.08.48.18.71.3.23.12.43.27.6.45.17.18.31.39.41.64.1.25.15.54.15.87,0,.42-.09.8-.26,1.13-.17.33-.43.61-.77.84-.34.23-.75.4-1.24.52-.49.12-1.06.18-1.7.18-.67,0-1.26-.07-1.77-.2-.51-.13-.94-.33-1.28-.58-.34-.25-.61-.57-.78-.94-.18-.37-.26-.8-.26-1.28h2.26c0,.42.15.75.45.97.3.23.76.34,1.37.34.27,0,.51-.02.73-.06.22-.04.4-.1.55-.19.15-.08.26-.18.34-.3.08-.12.12-.25.12-.4,0-.18-.05-.33-.15-.44-.1-.11-.23-.21-.4-.28-.17-.08-.37-.14-.6-.19-.23-.05-.48-.1-.75-.15l-.56-.1c-.21-.04-.43-.08-.67-.13-.24-.05-.48-.11-.71-.19-.24-.08-.47-.17-.69-.29-.22-.11-.41-.26-.58-.43-.17-.17-.3-.38-.4-.61-.1-.24-.15-.51-.15-.83,0-.4.09-.77.26-1.09.17-.32.42-.6.74-.82.32-.23.72-.4,1.18-.52.46-.12.99-.18,1.58-.18Z"/></svg>