<?xml version="1.0" encoding="UTF-8"?><svg xmlns="http://www.w3.org/2000/svg" viewBox="0 0 144 144"><defs><style>.cls-1{mix-blend-mode:color;}.cls-2{fill:#212121;stroke-width:0px;}.cls-3{isolation:isolate;}</style></defs><g class="cls-3"><g id="Layer_1"><g class="cls-1"><path class="cls-2" d="M65.85,74.03s-.01.29-.03.76c-.02.46-.03.91-.03,1.33v.51c-1.01-.06-3.01-.09-6-.09h-1.93c-.2,0-.29-.04-.29-.13,0-.06.03-.09.09-.1.03,0,.23-.01.59-.04.27-.02.43-.08.49-.17.06-.09.09-.33.09-.73v-8.71c0-.3-.04-.48-.13-.53-.09-.06-.37-.09-.84-.09-.16,0-.25-.04-.25-.13s.11-.13.34-.13h6.55c.31,0,.59-.02.85-.06.02.44.07,1.05.14,1.84l.06.66c.01.05.02.12.02.2,0,.1-.05.15-.14.15-.11,0-.2-.13-.25-.39-.2-.93-.52-1.52-.96-1.77-.33-.19-1.19-.28-2.6-.28h-1.27v4.54h.37c1.15,0,1.86-.09,2.11-.26.25-.18.43-.69.52-1.53.02-.22.08-.32.17-.32.11,0,.17.09.17.28s-.01.46-.03.82c-.02.36-.03.63-.03.82,0,1.1.02,1.86.05,2.27,0,.1.01.19.01.26,0,.13-.06.2-.17.2-.07,0-.12-.04-.15-.13-.03-.09-.07-.37-.13-.86-.08-.61-.33-.98-.75-1.13-.18-.06-.67-.09-1.45-.09h-.69v5.17c2.26,0,3.59-.05,3.98-.14.68-.15,1.06-.81,1.16-1.95.02-.25.09-.38.2-.38.1,0,.15.11.15.32"/><path class="cls-2" d="M72.57,69.87c0,.07-.1.11-.29.11h-.37c-.19,0-.33.11-.43.34-.06.2-.12.39-.18.59l-1.3,4c-.07.21-.18.52-.31.95-.17.57-.3.85-.4.85-.07,0-.14-.1-.21-.29-.05-.12-.1-.26-.15-.42-.84-2.26-1.26-3.38-1.27-3.37-.54-1.54-.86-2.38-.97-2.52-.09-.1-.23-.14-.43-.13h-.36c-.1,0-.15-.03-.15-.1s.07-.1.22-.1h2.95c.1,0,.15.04.15.11,0,.08-.16.12-.48.12s-.48.04-.48.12c0,.12.04.29.13.51.17.41.49,1.3.97,2.65.21.61.37,1.07.51,1.39.29-.92.55-1.71.78-2.37.45-1.34.68-2.08.68-2.2,0-.09-.08-.14-.23-.14h-.34c-.13,0-.2-.04-.2-.11,0-.06.06-.09.18-.09h1.54c.31-.01.46.02.46.09"/><path class="cls-2" d="M77.63,73.16c0-1.13-.18-2.01-.52-2.64-.26-.46-.69-.69-1.3-.69s-1.03.29-1.35.89c-.32.59-.49,1.41-.49,2.46s.17,1.85.51,2.44c.35.58.83.87,1.45.87.47,0,.83-.18,1.05-.54.43-.68.65-1.61.65-2.78M79.04,73.18c0,1-.3,1.84-.91,2.51-.61.67-1.36,1.01-2.27,1.01s-1.72-.34-2.35-1.01c-.63-.68-.94-1.51-.94-2.51s.31-1.88.92-2.56c.61-.68,1.38-1.02,2.29-1.02s1.7.34,2.33,1.03c.62.68.94,1.54.94,2.56"/><path class="cls-2" d="M89.65,75.99c0,.07-.11.11-.34.12-.8.05-1.51.23-2.12.53-.04.02-.08.03-.11.03-.06,0-.09-.04-.09-.12v-.87c-.47.66-1.13.99-1.98.99-.76,0-1.3-.22-1.62-.66-.13-.18-.21-.35-.24-.51-.03-.15-.04-.57-.04-1.24v-3.51c0-.36-.02-.57-.06-.63-.04-.06-.18-.1-.42-.11h-.2c-.28.02.5-.02.5-.12,0-.07.09-.11.26-.11s-.46.01-.11.04c.18.01.28.02.31.02.36,0,.69-.02,1-.06v4.29c0,.79.05,1.31.15,1.57.16.4.5.6,1.01.6.55,0,.95-.22,1.2-.67.18-.33.28-.85.28-1.57v-2.38c0-.35-.02-.61-.05-.79v-.51c-.01-.15-.04-.24-.1-.27-.06-.03-.17-.04-.35-.04-.43,0-.65-.04-.65-.14,0-.06.11-.09.33-.09h2.1v4.31c0,.74.02,1.21.05,1.41.03.2.11.31.24.34.13.03.42.04.86.04.12,0,.18.04.18.11"/><path class="cls-2" d="M94.19,75.6c0,.09-.13.26-.39.49-.44.4-.97.6-1.57.6-.57,0-.99-.15-1.28-.43-.16-.17-.25-.65-.25-1.45v-4.59c-.01-.1-.07-.16-.17-.17h-.59c-.23,0-.34-.04-.34-.11s.06-.11.17-.12c.8-.07,1.42-.47,1.87-1.19.06-.09.14-.14.23-.14.07,0,.11.04.11.11v.32c0,.43.02.71.06.83.1.02.25.03.47.03.57,0,.94-.03,1.13-.08.04-.01.08-.02.11-.02.08,0,.12.04.12.13,0,.15-.42.22-1.25.22h-.63v2.86c0,1.44.03,2.35.1,2.71.07.37.31.55.71.55.34,0,.72-.19,1.14-.57.04-.05.09-.08.14-.08.07,0,.11.03.11.08"/><path class="cls-2" d="M97.64,76.42c0,.09-.09.14-.26.14.01,0-.11,0-.37-.03-.31-.02-.57-.03-.77-.03h-1.61c-.05.04-.11.06-.19.06-.11,0-.17-.04-.17-.11,0-.11.1-.17.31-.17.39,0,.61-.04.64-.08.04-.05.06-.26.06-.64v-4.68c-.01-.25-.02-.41-.04-.45-.02-.05-.08-.07-.2-.07h-.6c-.11,0-.17-.04-.17-.11,0-.06.09-.1.26-.11.68-.03,1.27-.19,1.75-.48l.15-.09c.08.15.12.44.12.85v4.96c0,.41,0,.66.02.73.02.07.07.12.16.14.15.04.38.06.68.06.14,0,.22.04.22.12"/><path class="cls-2" d="M102.9,73.16c0-1.13-.18-2.01-.53-2.64-.26-.46-.69-.69-1.3-.69-.57,0-1.02.29-1.35.89-.33.59-.48,1.41-.48,2.46s.17,1.85.52,2.44c.35.58.83.87,1.44.87.47,0,.82-.18,1.05-.54.43-.68.65-1.61.65-2.78M104.31,73.18c0,1-.31,1.84-.91,2.51-.61.67-1.37,1.01-2.27,1.01s-1.72-.34-2.35-1.01c-.63-.68-.94-1.51-.94-2.51s.3-1.88.92-2.56c.61-.68,1.38-1.02,2.29-1.02s1.7.34,2.32,1.03c.62.68.94,1.54.94,2.56"/><path class="cls-2" d="M112.26,76.43c0,.08-.08.11-.23.11h-2.84c-.13,0-.2-.04-.2-.11,0-.05.03-.08.09-.09.06,0,.25-.02.59-.03.2-.01.31-.04.34-.08.03-.05.04-.22.04-.5v-2.96c0-1.12-.04-1.79-.12-2-.17-.46-.53-.69-1.05-.69s-.95.23-1.3.68c-.1.13-.15.32-.15.55v4.81c0,.12.11.19.33.2l.47.02c.11,0,.16.04.16.11s-.06.11-.18.11h-2.81c-.15,0-.23-.03-.23-.1s.09-.1.28-.12h.39c.15,0,.25-.04.28-.11l.05-.23v-3.36c0-1.17-.01-1.82-.03-1.94-.02-.12-.15-.18-.39-.18h-.45c-.21,0-.31-.04-.31-.12,0-.1.11-.15.33-.15.31,0,.64-.07,1-.17.36-.1.61-.22.76-.35.09-.08.16-.12.22-.12.07,0,.11.1.11.29v.74c.54-.69,1.23-1.04,2.07-1.04.74,0,1.28.27,1.61.82.18.31.28.9.28,1.76v3.52c0,.33.02.51.04.54.06.06.21.09.45.09h.28c.1,0,.15.03.15.1"/><path class="cls-2" d="M65.41,79.21h-.45c-.37.02-.55.09-.55.2,0,.02.3.92.91,2.69.24-.52.51-1.2.83-2.04.04-.11.11-.26.19-.45l.03-.12c0-.18-.32-.28-.96-.28M71.94,79.03c0,.09-.18.13-.53.15-.39,0-.65.14-.78.38-.13.25-.32.77-.6,1.58-.46,1.41-.88,2.61-1.23,3.6-.62,1.69-1.18,3.32-1.68,4.9-.04.13-.1.2-.16.2-.05,0-.1-.05-.15-.15-.05-.1-.19-.46-.42-1.07-.29-.8-.6-1.61-.94-2.43-.27-.64-.53-1.3-.79-1.98-.72,1.74-1.43,3.56-2.14,5.45-.04.12-.09.19-.15.19-.05,0-.11-.09-.19-.26-.32-.76-1.5-3.92-3.55-9.47-.14-.39-.25-.64-.32-.73-.07-.1-.25-.15-.54-.16-.49-.02-.74-.09-.74-.22,0-.09.08-.14.25-.14.07,0,.13,0,.18.02.54.03,1.13.05,1.76.05.12,0,.34,0,.64-.03.3-.02.7-.03,1.18-.03h.17c.18,0,.26.05.26.14,0,.11-.16.18-.48.19-.63.02-.95.1-.95.25,0,.29.95,2.97,2.84,8.05.69-1.74,1.2-3.02,1.54-3.85l-1.53-3.96c-.08-.21-.18-.35-.29-.41-.11-.06-.31-.1-.6-.11-.29,0-.44-.06-.44-.14,0-.11.11-.17.33-.17.16,0,.36,0,.6.03.23.02.65.03,1.23.03h2.87c.38,0,.84-.02,1.37-.05.06,0,.13-.01.22-.01.25,0,.37.05.37.16,0,.1-.09.15-.26.15h-.26c-.46,0-.81.06-1.05.19-.1.05-.29.42-.57,1.11-.13.29-.33.78-.62,1.47-.06.15-.15.39-.27.7.07.21.3.78.68,1.71.49,1.19.89,2.22,1.21,3.07.58-1.67,1.26-3.64,2.05-5.91.41-1.21.62-1.88.62-2.02,0-.2-.18-.29-.54-.29-.51,0-.76-.06-.76-.17,0-.1.1-.16.31-.16.18,0,.31,0,.41.02.23.03.44.04.62.04h1.24c.31,0,.48.01.51.04.03.02.05.05.05.08"/><path class="cls-2" d="M74.1,84.8c-.04-1.24-.48-1.85-1.33-1.85s-1.36.62-1.56,1.85h2.89ZM75.44,87.95c0,.1-.08.29-.24.55-.16.26-.32.48-.48.64-.44.45-1.04.68-1.78.68-.93,0-1.7-.33-2.33-1.01-.62-.67-.93-1.5-.93-2.49s.3-1.89.89-2.58c.59-.69,1.33-1.03,2.22-1.03.73,0,1.34.21,1.84.64.5.43.76.98.79,1.65-.33.05-.77.07-1.31.06h-1.08c-.07,0-.69.02-1.86.05-.05.34-.08.66-.08.97,0,1.04.2,1.83.6,2.39.4.56.96.84,1.68.84.41,0,.74-.09.99-.28.25-.18.52-.54.8-1.06.04-.08.1-.13.17-.13.08,0,.12.04.12.11"/><path class="cls-2" d="M79,89.52c0,.09-.06.14-.2.14h-.18s-.29,0-.82-.03h-.48c-.08,0-.5,0-1.24.02-.06,0-.12,0-.18,0-.15,0-.23-.03-.23-.13,0-.07.06-.1.17-.1h.4c.29,0,.43-.06.43-.19,0-.06.02-.46.02-1.21v-7.86c0-.34-.01-.53-.03-.56-.03-.08-.11-.12-.25-.12h-.55c-.15,0-.22-.04-.22-.13,0-.08.13-.12.38-.13.5-.03.95-.14,1.38-.34l.33-.15.12-.04c.08.3.12.75.11,1.36v8.67c0,.31,0,.49.02.55,0,.06.05.1.11.12.01.01.2.02.57.03.24,0,.36.04.36.11"/><path class="cls-2" d="M82.7,89.52c0,.09-.07.14-.2.14h-.19s-.29,0-.82-.03h-.48c-.08,0-.5,0-1.24.02-.06,0-.12,0-.19,0-.15,0-.23-.03-.23-.13,0-.07.06-.1.17-.1h.4c.29,0,.43-.06.43-.19,0-.06.02-.46.02-1.21v-20.94c0-.34-.01-.53-.03-.56-.03-.08-.11-.12-.25-.12h-.56c-.14,0-.21-.04-.21-.13,0-.08.13-.12.38-.13.5-.03.95-.15,1.37-.34l.33-.16.12-.05c.08.3.12.75.11,1.36v21.75c0,.31,0,.49.02.55,0,.06.05.1.11.12.01.01.2.02.57.03.24,0,.36.04.36.11"/><path class="cls-2" d="M90.6,89.55c0,.08-.08.12-.23.12h-2.84c-.13,0-.2-.04-.2-.11,0-.05.03-.08.08-.09.06,0,.25-.02.6-.03.2-.01.31-.04.34-.09.03-.04.05-.21.05-.5v-2.96c0-1.12-.04-1.79-.12-2-.18-.46-.53-.69-1.05-.69s-.95.23-1.3.68c-.1.13-.15.32-.15.56v4.81c0,.12.11.19.33.2h.47c.1.01.16.05.16.12s-.07.11-.19.11h-2.81c-.15,0-.23-.03-.23-.1s.09-.1.28-.12h.38c.15,0,.25-.03.28-.11l.05-.23v-3.36c0-1.17-.01-1.82-.03-1.94-.02-.12-.15-.18-.38-.18h-.45c-.21,0-.31-.04-.31-.12,0-.1.11-.15.32-.15.31,0,.64-.07,1-.17.36-.1.62-.22.76-.36.09-.08.17-.12.22-.12.07,0,.11.1.11.29v.74c.54-.69,1.23-1.03,2.07-1.03.74,0,1.28.27,1.61.82.19.31.28.9.28,1.76v3.52c0,.33.02.51.04.54.06.06.21.09.45.09h.28c.1,0,.15.04.15.1"/><path class="cls-2" d="M95.55,84.8c-.04-1.24-.48-1.85-1.33-1.85s-1.35.62-1.56,1.85h2.89ZM96.9,87.95c0,.1-.08.29-.24.55-.16.26-.32.48-.48.64-.45.45-1.04.68-1.78.68-.93,0-1.7-.33-2.32-1.01-.62-.67-.94-1.5-.94-2.49s.3-1.89.89-2.58c.59-.69,1.33-1.03,2.22-1.03.73,0,1.35.21,1.84.64.5.43.76.98.79,1.65-.33.05-.77.07-1.31.06h-1.08c-.07,0-.69.02-1.85.05-.05.34-.08.66-.08.97,0,1.04.2,1.83.6,2.39.39.56.95.84,1.68.84.41,0,.74-.09.99-.28.25-.18.52-.54.8-1.06.04-.08.1-.13.17-.13.08,0,.12.04.12.11"/><path class="cls-2" d="M102.49,87.67c0,.6-.22,1.11-.65,1.52-.44.42-.95.63-1.56.63-.35,0-.77-.12-1.27-.37-.13-.07-.25-.11-.35-.11-.14,0-.25.1-.32.29-.04.13-.1.19-.17.19s-.11-.04-.11-.12v-2.07c0-.11.04-.17.11-.17.08,0,.13.06.14.17.06.48.19.85.4,1.12.41.54.96.81,1.65.81.37,0,.67-.11.89-.33.23-.22.34-.51.34-.87,0-.4-.13-.72-.39-.96-.14-.14-.28-.23-.4-.29-.12-.06-.46-.19-1.04-.41-1.14-.43-1.72-1.08-1.72-1.95,0-.58.2-1.06.59-1.45.39-.39.87-.59,1.44-.59.21,0,.51.06.92.18.1.03.19.05.28.05.21,0,.35-.1.4-.31.03-.1.08-.15.14-.15.07,0,.11.04.11.13v.74c-.01.25.01.65.08,1.19v.03c0,.08-.04.12-.12.12-.06,0-.14-.16-.23-.47-.11-.37-.31-.68-.59-.9-.28-.23-.61-.35-.98-.35-.35,0-.64.11-.86.33-.23.22-.34.49-.34.82,0,.52.35.91,1.04,1.18,1.07.42,1.75.77,2.04,1.05.37.36.56.8.56,1.32"/><path class="cls-2" d="M108.08,87.67c0,.6-.22,1.11-.65,1.52-.44.42-.96.63-1.56.63-.35,0-.77-.12-1.27-.37-.13-.07-.25-.11-.35-.11-.15,0-.25.1-.32.29-.04.13-.1.19-.17.19s-.11-.04-.11-.12v-2.07c0-.11.04-.17.11-.17.08,0,.13.06.14.17.06.48.19.85.4,1.12.41.54.96.81,1.65.81.37,0,.67-.11.9-.33.23-.22.34-.51.34-.87,0-.4-.13-.72-.38-.96-.14-.14-.28-.23-.39-.29-.12-.06-.47-.19-1.04-.41-1.14-.43-1.72-1.08-1.72-1.95,0-.58.19-1.06.58-1.45.39-.39.87-.59,1.44-.59.2,0,.51.06.92.18.1.03.19.05.28.05.22,0,.35-.1.4-.31.03-.1.08-.15.14-.15.07,0,.11.04.11.13v.74c0,.25.02.65.08,1.19v.03c0,.08-.04.12-.12.12-.06,0-.14-.16-.23-.47-.11-.37-.31-.68-.59-.9-.28-.23-.61-.35-.98-.35-.35,0-.64.11-.87.33-.23.22-.34.49-.34.82,0,.52.35.91,1.04,1.18,1.07.42,1.75.77,2.04,1.05.37.36.56.8.56,1.32"/><path class="cls-2" d="M96.23,104.25H31.74V39.75h64.5v27.8h-.64v-27.16h-63.21v63.21h63.21v-12.71h.64v13.35ZM96.23,104.25"/></g></g></g></svg>