<?xml version="1.0" encoding="UTF-8"?><svg xmlns="http://www.w3.org/2000/svg" viewBox="0 0 144 144"><defs><style>.cls-1{mix-blend-mode:color;}.cls-2{fill:#212121;stroke-width:0px;}.cls-3{isolation:isolate;}</style></defs><g class="cls-3"><g id="Layer_1"><g class="cls-1"><path class="cls-2" d="M124.33,61.81v.42h-.81v2.1h-.5v-2.1h-.81v-.42h2.11ZM127.06,64.34l-.09-1.48c0-.19,0-.44-.02-.7h-.03c-.06.22-.14.52-.21.75l-.45,1.4h-.52l-.45-1.44c-.05-.19-.12-.49-.18-.71h-.03c0,.23,0,.47-.02.7l-.09,1.48h-.48l.19-2.52h.75l.44,1.23c.06.19.1.38.17.64h0c.06-.23.12-.44.18-.63l.44-1.24h.72l.19,2.52h-.5Z"/><path class="cls-2" d="M84.26,68.69l-4.19,7.33,1.67,6.19,5.17-8.92h9.81l2.68-4.63h-7.43l-4.26.03s-3.47-.01-3.44,0Z"/><path class="cls-2" d="M93.71,61.82h27.59l-2.76,4.66h-4.54l-7.99,13.85h-5.38l8-13.85h-23.86l.52-.92c1.74-2.89,3.17-3.73,4.8-3.73h3.61Z"/><polygon class="cls-2" points="105.85 68.97 106.01 68.66 105.74 68.66 101.11 68.66 100.75 68.66 94 80.33 99.28 80.33 105.64 69.35 105.85 68.97"/><path class="cls-2" d="M77.01,61.83h1l-2.71,4.7h-13.68l.51-1.06c1.73-2.88,3.19-3.64,4.82-3.64h10.06Z"/><polygon class="cls-2" points="42.89 68.66 43.18 68.66 42.88 69.22 36.44 80.33 30.86 80.33 37.61 68.66 37.84 68.66 42.89 68.66"/><path class="cls-2" d="M42.17,61.83h10.49s2.27,0,2.27,0c2.9.02,5.6,3.16,4.65,6.01-.3.91-.82,1.73-1.36,2.51-.83,1.22-2.07,2.16-3.48,2.62-.61.2-1.26.31-1.91.31h-.7l.71.95c1.08,1.37,1.99,1.4,3.49,1.44h13.97l-2.7,4.66h-11.03c-.88,0-1.79.06-2.66-.05-1.63-.2-3.16-1.03-4.09-2.38-1.02-1.48-1.81-3.1-2.79-4.61l-3.75,7.06h-5.53l6.76-11.7s3.36,0,4.54.02h2.98c2.43,0,2.61-1.01,3.18-2.13l-16.55-.05h-.04s2.71-4.66,2.71-4.66h.83Z"/><polygon class="cls-2" points="60.49 68.66 58.05 73.25 80.18 73.25 82.87 68.66 60.49 68.66"/><path class="cls-2" d="M20.64,68.69l-4.19,7.33,1.84,6.19,5.17-8.92h9.85l2.68-4.63h-7.64l-4.26.03s-3.47-.01-3.44,0Z"/><path class="cls-2" d="M39.32,61.79h.64l-2.71,4.7h-15.38l.51-1.06c1.73-2.88,3.19-3.64,4.82-3.64h12.12Z"/></g></g></g></svg>