<?xml version="1.0" encoding="UTF-8"?><svg id="Layer_1" xmlns="http://www.w3.org/2000/svg" viewBox="0 0 144 144"><defs><style>.cls-1{fill:#212121;stroke-width:0px;}</style></defs><path class="cls-1" d="M36.96,88.42h-1.14v-7.55h1.14v2.96h3.26v-2.96h1.14v7.55h-1.14v-3.53h-3.26v3.53Z"/><path class="cls-1" d="M42.88,88.02c-.36-.36-.54-.89-.54-1.6v-2.77h1.1v2.74c0,.79.31,1.19.93,1.19s.94-.4.94-1.19v-2.74h1.1v2.77c0,.68-.18,1.21-.53,1.58-.35.37-.86.56-1.52.56s-1.13-.18-1.49-.54Z"/><path class="cls-1" d="M47.39,88.42v-4.77h1.1v.44h.01c.15-.19.33-.33.53-.43.2-.1.44-.15.72-.15.31,0,.58.06.79.17.21.11.39.29.55.54h.01c.19-.23.41-.41.66-.53.25-.12.53-.18.85-.18.56,0,.98.17,1.27.5.28.33.43.82.43,1.46v2.95h-1.1v-2.64c0-.45-.07-.78-.2-.97-.13-.19-.35-.29-.65-.29-.33,0-.57.11-.72.33-.15.22-.23.56-.23,1.02v2.56h-1.1v-2.71c0-.41-.07-.71-.2-.9-.13-.19-.34-.29-.63-.29-.33,0-.57.11-.73.33-.16.22-.24.56-.24,1.02v2.56h-1.1Z"/><path class="cls-1" d="M56.13,88.23c-.36-.22-.64-.53-.85-.91-.2-.38-.31-.81-.31-1.29s.1-.89.31-1.27c.2-.38.48-.68.84-.9.36-.22.75-.33,1.19-.33.31,0,.59.05.84.15.25.1.5.27.73.5h.01v-.53h1.1v4.77h-1.1v-.53h-.01c-.24.23-.49.4-.74.51-.25.11-.52.16-.81.16-.45,0-.85-.11-1.21-.34ZM58.27,87.38c.22-.13.39-.32.51-.55.12-.23.18-.49.18-.78s-.06-.55-.18-.78c-.12-.23-.29-.42-.51-.55-.22-.13-.47-.2-.75-.2s-.53.07-.75.2c-.22.13-.38.32-.5.55-.12.23-.18.49-.18.77,0,.3.06.57.17.8.11.23.28.42.49.55.21.13.46.2.76.2s.54-.07.76-.2Z"/><path class="cls-1" d="M61.03,88.42v-4.77h1.1v.51h.02c.19-.21.4-.37.63-.48.23-.11.5-.17.82-.17.54,0,.95.17,1.23.51.28.34.42.83.42,1.46v2.93h-1.1v-2.66c0-.45-.07-.77-.22-.96-.14-.19-.37-.29-.69-.29-.36,0-.63.12-.82.36-.19.24-.28.62-.28,1.16v2.39h-1.1Z"/><path class="cls-1" d="M70.67,88.39c-.25-.1-.5-.27-.73-.5h-.01v.53h-1.1v-8.22h1.1v3.98h.01c.23-.23.48-.4.73-.51.25-.1.52-.16.82-.16.45,0,.85.11,1.21.33.36.22.64.52.85.91.2.38.31.81.31,1.29s-.1.89-.31,1.27c-.2.38-.48.68-.84.9-.36.22-.75.33-1.19.33-.31,0-.59-.05-.84-.15ZM72.05,87.36c.22-.13.38-.32.5-.55.12-.23.18-.49.18-.77,0-.3-.06-.57-.17-.8-.11-.23-.28-.42-.49-.55-.21-.13-.46-.2-.76-.2s-.54.07-.76.2c-.22.13-.39.31-.51.55-.12.23-.18.49-.18.78s.06.55.18.78c.12.23.29.42.51.55.22.13.47.2.75.2s.53-.07.75-.2Z"/><path class="cls-1" d="M76.4,86.36l1.36-2.7h1.24l-3.8,7.36h-1.25l1.86-3.54-2.15-3.83h1.28l1.45,2.7Z"/><path class="cls-1" d="M81.95,88.42v-4.77h1.1v.51h.02c.19-.21.4-.37.63-.48.23-.11.5-.17.82-.17.54,0,.95.17,1.23.51.28.34.42.83.42,1.46v2.93h-1.1v-2.66c0-.45-.07-.77-.22-.96-.14-.19-.37-.29-.69-.29-.36,0-.63.12-.82.36-.19.24-.28.62-.28,1.16v2.39h-1.1Z"/><path class="cls-1" d="M88,88.23c-.36-.22-.64-.53-.85-.91-.2-.38-.31-.81-.31-1.29s.1-.89.31-1.27c.2-.38.48-.68.84-.9.36-.22.75-.33,1.19-.33.31,0,.59.05.84.15.25.1.5.27.73.5h0v-.53h1.1v4.77h-1.1v-.53h0c-.24.23-.49.4-.74.51-.25.11-.52.16-.81.16-.45,0-.85-.11-1.21-.34ZM90.15,87.38c.22-.13.39-.32.51-.55.12-.23.18-.49.18-.78s-.06-.55-.18-.78c-.12-.23-.29-.42-.51-.55-.22-.13-.47-.2-.75-.2s-.53.07-.75.2c-.22.13-.38.32-.5.55-.12.23-.18.49-.18.77,0,.3.06.57.17.8.11.23.28.42.49.55.21.13.46.2.76.2s.54-.07.76-.2Z"/><path class="cls-1" d="M94.29,88.42h-1.1v-3.74h-.77v-1.03h.77v-1.74h1.1v1.74h.85v1.03h-.85v3.74Z"/><path class="cls-1" d="M96.22,88.02c-.36-.36-.54-.89-.54-1.6v-2.77h1.1v2.74c0,.79.31,1.19.93,1.19s.94-.4.94-1.19v-2.74h1.1v2.77c0,.68-.18,1.21-.53,1.58-.35.37-.86.56-1.52.56s-1.13-.18-1.49-.54Z"/><path class="cls-1" d="M100.61,88.42v-4.77h1.1v.43h.02c.19-.2.37-.34.52-.43.15-.09.34-.13.57-.13.29,0,.59.1.9.29l-.5,1c-.21-.15-.41-.22-.61-.22-.6,0-.9.45-.9,1.35v2.47h-1.1Z"/><path class="cls-1" d="M108.23,86.3h-3.42c.03.39.16.71.38.94.22.23.51.35.87.35.27,0,.5-.06.69-.19.19-.12.37-.32.54-.6l.9.55c-.24.41-.54.71-.89.91-.35.2-.78.3-1.27.3-.47,0-.88-.11-1.24-.32-.36-.21-.63-.51-.83-.89-.19-.38-.29-.82-.29-1.31s.1-.93.29-1.32c.19-.38.47-.68.82-.89.35-.21.76-.32,1.22-.32s.87.1,1.21.31c.34.2.59.5.77.88.18.38.27.82.27,1.33v.26ZM107.09,85.4c-.05-.29-.17-.51-.37-.66-.2-.15-.44-.23-.74-.23s-.53.08-.72.24c-.19.16-.32.38-.4.65h2.21Z"/><path class="cls-1" d="M38.06,64.18v.68c0,4.62-3,8.72-8.48,8.72s-9.08-4.41-9.08-9.4,3.82-9.36,9.11-9.36c2.85,0,5.59,1.21,7.42,3.51l-1.58,1.53c-1.31-1.8-3.58-2.99-5.79-2.99-4.05,0-6.76,3.18-6.76,7.23s2.5,7.39,6.84,7.39c3.48,0,5.69-2.56,5.85-5.36h-4.97v-1.95h7.46ZM43.2,56.81c0-.86-.69-1.55-1.52-1.55s-1.52.69-1.52,1.55.69,1.5,1.52,1.5,1.52-.66,1.52-1.5h0ZM42.79,73.2v-11.49h-2.21v11.49h2.21ZM50.22,69.09l-3.29-7.39h-2.57l5.83,11.96,5.81-11.96h-2.46l-3.32,7.39h0ZM107.73,71.49h-.09c-.75,1.2-2.2,2.03-3.94,2.03-3.51,0-5.61-2.73-5.61-6.12,0-3.14,2.26-5.94,5.61-5.94,1.64,0,3.04.68,3.94,2.04h.09v-1.79h2.05v11.49h-2.05v-1.71h0ZM103.98,71.63c2.45,0,3.73-1.92,3.73-4.18s-1.3-4.13-3.73-4.13c-2.28,0-3.63,1.99-3.63,4.13s1.3,4.18,3.63,4.18h0ZM66.2,71.49h-.09c-.75,1.2-2.2,2.03-3.94,2.03-3.51,0-5.61-2.73-5.61-6.12,0-3.14,2.27-5.94,5.61-5.94,1.64,0,3.04.68,3.94,2.04h.09v-1.79h2.05v11.49h-2.05v-1.71h0ZM62.44,71.63c2.46,0,3.73-1.92,3.73-4.18s-1.3-4.13-3.73-4.13c-2.28,0-3.63,1.99-3.63,4.13s1.3,4.18,3.63,4.18h0ZM89.57,71.63c2.45,0,3.73-1.92,3.73-4.18s-1.31-4.13-3.73-4.13c-2.29,0-3.64,1.99-3.64,4.13,0,2.26,1.16,4.18,3.64,4.18h0ZM93.27,71.5h-.09c-.72,1.2-2.31,2.01-3.94,2.01-3.51,0-5.56-2.71-5.56-6.05s2.26-6.01,5.56-6.01c1.63,0,3.08.72,3.94,2.04h.09v-10.52h2.12v20.22h-2.12v-1.7h0ZM73.69,61.71h-2.25v6.81c0,.5.03,1.04.1,1.4.41,2.32,2.22,3.67,4.8,3.67s4.39-1.35,4.8-3.67c.06-.37.1-.91.1-1.4v-6.81h-2.25v6.96c0,1.77-.73,3.03-2.65,3.03s-2.65-1.25-2.65-3.03v-6.96h0ZM115.9,63.19v-1.48h-2.21v11.49h2.21v-5.96c0-.58.03-1.24.12-1.73.24-1.34,1.39-2.26,2.85-2.26s2.28.77,2.4,2.21c.03.3.02.56.02.82v6.92h2.21v-7.42c0-.48-.03-1.08-.13-1.49-.41-1.72-1.74-2.87-4-2.87-1.4,0-2.79.78-3.39,1.77h-.07Z"/></svg>