<?xml version="1.0" encoding="UTF-8"?><svg id="Layer_1" xmlns="http://www.w3.org/2000/svg" viewBox="0 0 144 144"><defs><style>.cls-1{fill:#212121;stroke-width:0px;}</style></defs><path class="cls-1" d="M39.05,71.99h17v-12.21h-5.83v6.78h-9.3c-.37,0-.71-.34-.71-.71v-8.75c0-.41.34-.71.71-.71h15.13v-5.43h-17c-2.78,0-5.02,2.24-5.02,5.02v10.99c0,2.78,2.24,5.02,5.02,5.02Z"/><path class="cls-1" d="M99.8,50.95h-34.26c-2.78,0-5.02,2.24-5.02,5.02v10.99c0,2.78,2.24,5.02,5.02,5.02h34.26c2.78,0,5.02-2.24,5.02-5.02v-10.99c0-2.78-2.24-5.02-5.02-5.02ZM98.65,65.85c0,.37-.31.71-.71.71h-30.53c-.37,0-.71-.34-.71-.71v-8.75c0-.41.34-.71.71-.71h30.53c.41,0,.71.31.71.71v8.75Z"/><path class="cls-1" d="M34.03,80.15v12.9h1.89v-8.89h32.88v-1.72h-32.88v-2.04c0-1.27,1.07-2.34,2.34-2.34h30.55v-1.7h-30.98c-2.09,0-3.79,1.7-3.79,3.79Z"/><polygon class="cls-1" points="71.65 78.05 79.14 78.05 79.14 91.35 71.65 91.35 71.65 93.05 88.5 93.05 88.5 91.35 81.02 91.35 81.02 78.05 88.5 78.05 88.5 76.36 71.65 76.36 71.65 78.05"/><polygon class="cls-1" points="90.44 78.05 96.7 78.05 96.7 93.05 98.59 93.05 98.59 78.05 104.82 78.05 104.82 76.36 90.44 76.36 90.44 78.05"/><path class="cls-1" d="M109.93,50.95h-.37s-.05,0-.05.03l-.8,2.55-.81-2.55s-.03-.03-.05-.03h-.37s-.04.02-.04.04v2.63s.02.05.04.05h.18s.04-.02.04-.05v-2.45l.75,2.46s.03.04.05.04h.41s.05-.01.05-.04l.75-2.46v2.45s.02.05.04.05h.18s.04-.02.04-.05v-2.63s-.02-.04-.04-.04Z"/><path class="cls-1" d="M107.19,50.95h-2.33s-.04,0-.04.02v.21s.02.02.04.02h1.04v2.42s0,.05.02.05h.22s.02-.02.02-.05v-2.42h1.04s.04,0,.04-.02v-.21s-.02-.02-.04-.02Z"/></svg>