<?xml version="1.0" encoding="UTF-8"?><svg id="Layer_1" xmlns="http://www.w3.org/2000/svg" viewBox="0 0 144 144"><defs><style>.cls-1{fill:#212121;stroke-width:0px;}</style></defs><path class="cls-1" d="M77.85,49.39c-.43,1.57-.86,3.27-1.36,5.23-.83,3.28-2.38,11.77-2.85,17.37-.25.11-.97.21-1.33.21-1.13,0-2.46-.69-2.55-2.5-.11-2.23,1.2-10.47,3.16-18.11.06-.24.12-.47.18-.71-2.53.86-4.89,1.79-7.01,2.7-.79,3.46-1.84,8.78-2.23,14.03-.08.08-.82.19-1.19.19-1.35,0-2.29-.9-2.28-2.43.01-3,.68-6.93,1.25-9.76-2.86,1.39-4.99,2.6-6.19,3.31-.21-.4-.28-1.06-.23-1.38.06-.45.33-1.44,1.43-2.2,1.76-1.22,3.7-2.4,5.84-3.54,1.1-4.46,2.57-8.98,3.82-11.66.8-1.72,1.82-2.39,3.58-2.39.46,0,1.1.11,1.43.21-1.59,3.44-3.08,7.54-4.22,11.61,2.17-.95,4.53-1.85,7.09-2.68,1.24-4.34,2.37-7.45,3.41-9.43.65-1.23,1.74-1.73,2.71-1.85.86-.11,1.62,0,2.3.18-1.63,3.88-2.69,6.74-3.61,9.68,1.76-.47,3.61-.91,5.55-1.32,1.05-.22,4.88-.9,5.58,2.8-4.29.48-8.42,1.36-12.27,2.45ZM76.27,67.13c0-.08-.04-.1-.13-.1h-.07v.21h.09c.09,0,.12-.04.12-.11M76.39,67.52s-.04.02-.06.02c-.04,0-.07-.01-.09-.06l-.09-.16h-.09v.22h-.1v-.5h-.05v-.07h.23c.13,0,.22.05.22.17,0,.09-.04.15-.12.17l.08.13s.02.03.03.03c.01,0,.03,0,.04-.01v.07ZM76.6,67.25c0-.29-.18-.47-.45-.47s-.45.17-.45.47.18.47.45.47.45-.17.45-.47M76.69,67.25c0,.32-.21.54-.54.54s-.54-.22-.54-.54.21-.54.54-.54.54.22.54.54M61.05,77.16c-.67,0-1.33.61-1.33,1.3,0,.51.36.86.86.86.67,0,1.34-.61,1.34-1.3,0-.51-.38-.86-.87-.86ZM56.47,77.76c-.38,1.83-1.57,7.62-1.57,7.62-.07.32-.5,1.98,1.24,1.98h.26l2.29-11.08s-1.84-.34-2.21,1.48ZM59.19,81.62c-.38,1.79-.78,3.76-.78,3.76-.07.32-.5,1.98,1.24,1.98h.26l1.49-7.2c-.07,0-1.83-.31-2.21,1.46ZM54.14,82.6c0,1.53-.63,2.99-1.7,3.86-.68.57-1.59.9-2.6.9-1.62,0-2.78-.87-2.78-2.58,0-1.53.63-2.97,1.7-3.84.68-.57,1.59-.9,2.61-.9,1.61,0,2.78.86,2.78,2.56ZM52.18,82.61c0-.76-.29-1.3-1.06-1.3-.48,0-.91.28-1.23.69-.6.76-.9,1.96-.9,2.78,0,.76.31,1.3,1.08,1.3.48,0,.89-.28,1.21-.69.6-.75.9-1.96.9-2.78ZM88.63,77.29c-.29,1.35-1.67,8.09-1.67,8.09-.09.39-.47,1.98,1.24,1.98h.26l2.37-11.5c-.45-.08-1.88-.07-2.2,1.42ZM95.43,80.03c-.92,0-1.71.42-2.22.98,0,0-.07-1.4-1.92-.84.33.98.15,1.32-.22,3.3l-.39,1.91c-.07.33-.5,1.98,1.24,1.98h.26l.69-3.32c.19-.89.55-2.58,1.89-2.58.67,0,1.01.42.8,1.44l-.51,2.48c-.07.32-.51,1.98,1.24,1.98h.26l.94-4.53c.42-1.94-.59-2.79-2.05-2.79ZM45.31,77.37c-.09.42-.28,1.34-.59,2.84l-3.21.64.94-4.57c-.29-.05-1.88-.18-2.21,1.48-.1.52-1.58,7.61-1.58,7.61-.07.37-.5,1.98,1.23,1.98h.27l.93-4.49,3.21-.64c-.32,1.54-.65,3.15-.65,3.15-.07.32-.5,1.98,1.24,1.98h.26l2.38-11.5s-1.84-.33-2.22,1.51ZM103.32,80.03c-.92,0-1.71.42-2.22.98,0,0-.07-1.4-1.92-.84.33.98.15,1.32-.22,3.3l-.39,1.91c-.07.33-.5,1.98,1.24,1.98h.26l.69-3.32c.19-.89.55-2.58,1.89-2.58.67,0,1.01.42.8,1.44l-.51,2.48c-.07.32-.51,1.98,1.24,1.98h.26l.94-4.53c.42-1.94-.59-2.79-2.05-2.79ZM66.98,81.37c-.1-.06-.35-.11-.57-.11-1.49,0-2.69,1.82-2.69,3.51,0,.83.39,1.28,1.04,1.28.46,0,.79-.17,1.05-.47.26-.31.44-.76.55-1.28l.61-2.93ZM69.93,76.28l-2.29,11.08h-.26c-.58,0-1.09-.21-1.26-.74-.41.42-1.08.74-1.96.74-1.46,0-2.42-.98-2.42-2.53,0-2.53,1.98-4.79,4.76-4.79.28,0,.55.02.73.07-.02.09.3-1.43.48-2.3.35-1.78,2.06-1.53,2.22-1.51ZM76.69,80.7l-1.37,6.66h-.26c-.58,0-1.1-.2-1.26-.75-.39.42-1.08.75-1.96.75-1.46,0-2.34-.96-2.34-2.52,0-2.66,2.11-4.81,4.76-4.81.91,0,1.7.26,2.44.67ZM74.64,81.37c-.12-.06-.26-.11-.43-.11-1.69,0-2.76,2.04-2.76,3.52,0,.83.32,1.27.98,1.27.47,0,.8-.17,1.07-.47.26-.31.42-.76.54-1.28l.61-2.94ZM106.49,80.46c0-.08-.04-.1-.13-.1h-.07v.21h.09c.09,0,.12-.04.12-.11M106.61,80.85s-.04.02-.06.02c-.04,0-.07-.01-.09-.06l-.09-.16h-.09v.22h-.1v-.5h-.05v-.07h.23c.13,0,.22.05.22.17,0,.09-.04.15-.12.17l.08.13s.02.03.03.03c.01,0,.03,0,.04-.01v.07ZM106.82,80.57c0-.29-.18-.47-.45-.47s-.45.17-.45.47.18.47.45.47.45-.17.45-.47M106.91,80.57c0,.32-.21.54-.54.54s-.54-.22-.54-.54.21-.54.54-.54.54.22.54.54M82.08,83.35s0,0,0,0c0,0,0,0,0,0ZM82.43,81.69c-.37,1.71-.36,1.67-.36,1.66-.19.89-.5,2.57-1.86,2.57-1.21,0-.83-1.34-.75-1.69l.86-4.07s-1.84-.37-2.27,1.65c-.43,2.02-.5,2.36-.5,2.36-.09.43-.17.86-.17,1.22,0,.52.19.94.48,1.27-1.12.28-1.64.86-1.64,1.69,0,1.22,1.21,1.95,2.82,1.95,1.38,0,2.47-.47,3.17-1.25.57-.64.92-1.51,1.18-2.75l1.31-6.13s-1.85-.31-2.25,1.53ZM81.22,87.2c-.15.57-.41,1.08-.78,1.44-.36.35-.86.54-1.4.54-.67,0-1.22-.32-1.22-.89,0-.72.71-.9,1.76-1.02.74-.08,1.4-.26,1.77-.6l-.13.52ZM82.08,83.35s0,0,0,0c0,0,0,0,0,0Z"/><path class="cls-1" d="M72.31,94.02c0-.07-.04-.1-.12-.1h-.09v.21h.09c.08,0,.12-.04.12-.1h0ZM72.51,94.5h-.16l-.17-.27h-.07v.27h-.15v-.7h.25c.16,0,.27.07.27.21h0c0,.11-.06.17-.14.19l.19.3ZM72.78,94.16c0-.35-.24-.59-.58-.59s-.58.25-.58.6.26.59.58.59.58-.24.58-.59M72.9,94.16c0,.4-.31.71-.71.71s-.71-.3-.71-.7.31-.71.71-.71.71.31.71.71M70.11,94.53l.61-.57c-.18-.21-.41-.38-.68-.5-.27-.12-.57-.18-.89-.18-.39,0-.74.09-1.06.26-.32.17-.57.41-.75.73-.18.32-.28.69-.28,1.11,0,.4.09.76.26,1.08.17.31.42.56.74.75.32.18.68.28,1.09.28.38,0,.72-.08,1.03-.25.31-.17.55-.41.74-.72.18-.31.27-.67.27-1.08,0-.14-.01-.3-.05-.46h-2.09v.82h1.17c-.02.25-.13.45-.33.62-.2.16-.45.24-.75.24-.22,0-.42-.05-.6-.15-.17-.1-.31-.25-.41-.44-.1-.19-.15-.42-.15-.67s.05-.46.14-.65c.09-.19.23-.34.41-.45.18-.11.38-.16.62-.16.35,0,.67.14.96.41M62.62,93.36h.88v1.61h1.74v-1.61h.88v4.03h-.88v-1.61h-1.74v1.61h-.88v-4.03ZM61.46,97.4h-.88v-4.03h.88v4.03ZM54.8,93.37h.64l1.96,3.33v-3.33h.47v4.03h-.56l-2.03-3.46v3.46h-.47v-4.03ZM51.27,95.85h1.4l-.7-2.07-.7,2.07ZM51.67,93.37h.64l1.36,4.03h-.49l-.39-1.16h-1.66l-.39,1.16h-.46l1.39-4.03ZM91.41,93.37h.49v3.63h1.84v.4h-2.33v-4.03ZM87.61,93.37h2.35v.4h-1.86v1.37h1.5v.4h-1.5v1.46h1.96v.4h-2.45v-4.03ZM84.78,93.77h-1.17v-.4h2.83v.4h-1.17v3.63h-.49v-3.63ZM82.41,95.39v-.04c0-.9-.53-1.63-1.46-1.63s-1.48.69-1.48,1.65v.04c0,.98.65,1.64,1.49,1.64.9,0,1.45-.68,1.45-1.65M78.97,95.41v-.04c0-1.14.8-2.05,1.98-2.05s1.97.9,1.97,2.03v.05c0,1.14-.78,2.05-1.96,2.05s-2-.91-2-2.04M74.68,93.37h.49v1.83h2.12v-1.83h.49v4.03h-.49v-1.79h-2.12v1.79h-.49v-4.03Z"/><path class="cls-1" d="M34.22,107.32c0,.36-.04.59-.16.77-.15.22-.43.34-.83.34-.2,0-.46-.05-.65-.13l.02-.35c.14.07.39.13.58.13.23,0,.39-.07.47-.24.06-.12.08-.29.08-.51v-2.26h-.97v-.34h1.45v2.59Z"/><path class="cls-1" d="M36.98,108.44c-.92,0-1.45-.69-1.45-1.88s.53-1.88,1.45-1.88,1.45.69,1.45,1.88-.53,1.88-1.45,1.88ZM36.98,105.04c-.61,0-.95.46-.95,1.52s.34,1.52.95,1.52.95-.46.95-1.52-.34-1.52-.95-1.52Z"/><path class="cls-1" d="M42.33,108.38h-.48v-1.64h-1.64v1.64h-.48v-3.66h.48v1.63h1.64v-1.63h.48v3.66Z"/><path class="cls-1" d="M45.09,108.44c-.92,0-1.45-.69-1.45-1.88s.53-1.88,1.45-1.88,1.45.69,1.45,1.88-.53,1.88-1.45,1.88ZM45.09,105.04c-.61,0-.95.46-.95,1.52s.34,1.52.95,1.52.95-.46.95-1.52-.34-1.52-.95-1.52Z"/><path class="cls-1" d="M50.51,108.32c-.08.05-.2.09-.32.09-.28,0-.39-.13-.53-.38l-.6-1.09h-.69v1.43h-.48v-3.31h-.32v-.34h1.39c.49,0,.81.09,1.04.27.23.18.35.45.35.8,0,.58-.28.96-.81,1.1l.57,1.02c.07.13.12.17.21.17.07,0,.16-.02.22-.06l-.02.31ZM49.67,105.27c-.16-.14-.4-.2-.76-.2h-.54v1.55h.63c.63,0,.87-.32.87-.8,0-.25-.07-.43-.2-.55Z"/><path class="cls-1" d="M54.81,108.38h-1.1v-3.31h-.32v-.34h1.35c.38,0,.66.04.88.19.24.16.35.42.35.71,0,.4-.16.66-.46.81.4.1.68.37.68.9,0,.77-.5,1.05-1.39,1.05ZM55.29,105.19c-.14-.09-.3-.12-.59-.12h-.51v1.27h.51c.32,0,.51-.04.64-.16.12-.11.17-.28.17-.5,0-.18-.07-.39-.23-.49ZM55.52,106.84c-.17-.16-.42-.18-.77-.18h-.55v1.39h.54c.38,0,.61-.05.76-.17.15-.12.21-.29.21-.54,0-.21-.05-.39-.18-.5Z"/><path class="cls-1" d="M60.29,108.38h-.49l-.29-.84h-1.5l-.27.84h-.47l1.11-3.31h-.34v-.34h.92l1.32,3.66ZM59.4,107.21l-.58-1.67c-.03-.08-.07-.21-.08-.33h0c0,.13-.04.26-.06.33l-.54,1.67h1.28Z"/><path class="cls-1" d="M64.08,108.38h-.48v-1.64h-1.64v1.64h-.48v-3.66h.48v1.63h1.64v-1.63h.48v3.66Z"/><path class="cls-1" d="M68.24,108.32c-.08.05-.2.09-.32.09-.28,0-.39-.13-.53-.38l-.6-1.09h-.69v1.43h-.48v-3.31h-.32v-.34h1.39c.49,0,.81.09,1.04.27.23.18.35.45.35.8,0,.58-.28.96-.81,1.1l.57,1.02c.07.13.12.17.21.17.07,0,.16-.02.22-.06l-.02.31ZM67.39,105.27c-.16-.14-.4-.2-.76-.2h-.54v1.55h.63c.63,0,.87-.32.87-.8,0-.25-.07-.43-.2-.55Z"/><path class="cls-1" d="M72.12,107.06c0,.43-.06.7-.23.94-.2.29-.55.44-1.09.44-.45,0-.78-.11-.99-.35-.21-.23-.29-.52-.29-.99v-2.37h.48v2.33c0,.39.05.6.16.76.13.18.36.27.66.27.32,0,.54-.09.66-.27.13-.17.16-.42.16-.77v-2.32h.47v2.33Z"/><path class="cls-1" d="M77.46,105.61c-.1-.35-.29-.58-.69-.58-.63,0-.96.53-.96,1.48,0,.89.23,1.56,1.08,1.56.33,0,.7-.12.94-.27l-.02.38c-.25.15-.64.25-.99.25-1.01,0-1.51-.69-1.51-1.91,0-1.15.53-1.85,1.48-1.85.57,0,.98.28,1.11.83l-.44.1Z"/><path class="cls-1" d="M80.25,108.38h-1.24v-.29h.38v-3.07h-.38v-.29h1.24v.29h-.38v3.07h.38v.29Z"/><path class="cls-1" d="M83.82,105.07h-1.07v3.31h-.48v-3.31h-1.07v-.34h2.62v.34Z"/><path class="cls-1" d="M87.4,104.73l-1.17,2.38v1.28h-.48v-1.29l-1.17-2.37h.51l.8,1.63c.07.14.12.28.13.37h0c.01-.09.06-.21.13-.35l.79-1.65h.45Z"/><path class="cls-1" d="M92.38,105.61c-.1-.35-.29-.58-.69-.58-.63,0-.96.53-.96,1.48,0,.89.23,1.56,1.08,1.56.33,0,.7-.12.94-.27l-.02.38c-.25.15-.64.25-.99.25-1.01,0-1.51-.69-1.51-1.91,0-1.15.53-1.85,1.48-1.85.57,0,.98.28,1.11.83l-.44.1Z"/><path class="cls-1" d="M96.34,108.04l-.05.34h-2.16v-3.66h2.08v.34h-1.6v1.29h1.29v.33h-1.29v1.35h1.73Z"/><path class="cls-1" d="M100.33,108.38h-.34l-1.73-2.53c-.08-.11-.16-.25-.2-.37v2.9h-.42v-3.66h.34l1.73,2.52c.09.13.17.27.2.37v-2.89h.42v3.66Z"/><path class="cls-1" d="M104.1,105.07h-1.07v3.31h-.48v-3.31h-1.07v-.34h2.62v.34Z"/><path class="cls-1" d="M107.91,108.32c-.08.05-.2.09-.32.09-.28,0-.39-.13-.53-.38l-.6-1.09h-.69v1.43h-.48v-3.31h-.32v-.34h1.39c.49,0,.81.09,1.04.27.23.18.35.45.35.8,0,.58-.28.96-.81,1.1l.57,1.02c.07.13.12.17.21.17.07,0,.16-.02.22-.06l-.02.31ZM107.07,105.27c-.16-.14-.4-.2-.76-.2h-.54v1.55h.63c.63,0,.87-.32.87-.8,0-.25-.07-.43-.2-.55Z"/><path class="cls-1" d="M111.41,108.04l-.05.34h-2.16v-3.66h2.08v.34h-1.6v1.29h1.29v.33h-1.29v1.35h1.73Z"/></svg>