<?xml version="1.0" encoding="UTF-8"?><svg id="Layer_1" xmlns="http://www.w3.org/2000/svg" viewBox="0 0 144 144"><defs><style>.cls-1{fill:#191919;}.cls-1,.cls-2{stroke-width:0px;}.cls-2{fill:#8f8f8f;}</style></defs><path class="cls-2" d="M28.07,67.98s-.07,0-.17.01c-.22.01-.42.04-.62.09-.5.1-1,.25-1.51.45l-.38.15.15-.38c.2-.51.35-1.01.45-1.5.05-.2.08-.4.09-.62,0-.11.01-.18.01-.18,0-.99-.44-1.89-1.16-2.54.17.3.28.62.33.97.31,2.12-1.52,4.55-1.81,4.92-.2.35-.46.71-.78,1.08-.15.17-.31.34-.48.5l-.12.12-.12-.12c-.17-.16-.33-.33-.48-.5-1.1-1.26-1.44-2.49-1.55-3.11-.02-.11-.04-.24-.05-.38,0-.07,0-.11,0-.11,0-1.26.99-2.28,2.2-2.28s2.2,1.02,2.2,2.27c0,0,0,.04,0,.12,0,.13-.02.26-.05.38-.01.07-.03.15-.05.24.47-.9.89-2.05.74-3.08-.11-.73-.49-1.32-1.15-1.77-.51-.22-1.09-.34-1.69-.34-2.22,0-4.02,1.63-4.02,3.62,0,0,0,.06,0,.17.01.22.04.42.09.62.1.5.25,1,.45,1.51l.15.38-.38-.15c-.51-.2-1.01-.35-1.5-.45-.2-.05-.41-.08-.62-.09-.11,0-.18-.01-.18-.01-.99,0-1.89.44-2.54,1.16.3-.17.62-.28.97-.33,2.13-.32,4.57,1.53,4.92,1.81.35.2.71.46,1.07.78.17.15.34.31.51.48l.12.12-.12.12c-.16.17-.33.33-.51.48-1.25,1.09-2.48,1.44-3.1,1.54-.12.03-.25.04-.38.05-.07,0-.11,0-.11,0h0c-1.25,0-2.27-.99-2.27-2.2s1.02-2.2,2.27-2.2c0,0,.04,0,.12,0,.13,0,.26.02.38.05.07.01.15.03.24.05-.9-.47-2.05-.89-3.08-.74-.73.11-1.32.49-1.77,1.15-.22.52-.34,1.09-.34,1.69,0,2.22,1.63,4.02,3.62,4.02,0,0,.06,0,.17,0,.22-.01.42-.04.62-.09.5-.1,1-.25,1.51-.45l.38-.15-.15.38c-.2.51-.35,1.01-.45,1.5-.05.2-.08.41-.09.62,0,.11-.01.18-.01.18,0,.99.44,1.89,1.16,2.54-.17-.3-.28-.62-.33-.97-.32-2.13,1.53-4.57,1.81-4.92.2-.34.46-.71.77-1.07.15-.17.31-.34.48-.51l.12-.12.12.12c.17.16.33.33.48.51,1.1,1.26,1.44,2.48,1.54,3.1.03.12.04.25.05.38,0,.07,0,.11,0,.11,0,1.26-.99,2.28-2.2,2.28s-2.2-1.02-2.2-2.27c0,0,0-.04,0-.12,0-.13.02-.26.05-.38.01-.07.03-.15.05-.24-.47.9-.89,2.05-.74,3.09.11.73.49,1.32,1.15,1.77.51.22,1.09.34,1.69.34,2.22,0,4.02-1.63,4.02-3.62,0,0,0-.06,0-.17-.01-.22-.04-.42-.09-.62-.1-.5-.25-1-.45-1.51l-.15-.38.38.15c.51.2,1.01.35,1.5.45.2.05.41.08.62.09.11,0,.18,0,.18,0,.99,0,1.89-.44,2.54-1.16-.3.17-.62.28-.98.33-.17.02-.34.04-.51.04-1.99,0-4.08-1.58-4.42-1.84-.35-.2-.71-.46-1.07-.78-.17-.15-.34-.31-.51-.48l-.12-.12.12-.12c.17-.17.34-.33.51-.48,1.26-1.1,2.48-1.44,3.1-1.54.12-.03.25-.04.38-.05.07,0,.11,0,.11,0,1.25,0,2.27.99,2.27,2.2s-1.02,2.2-2.27,2.2h0s-.05,0-.12,0c-.13,0-.26-.02-.38-.05-.07-.01-.15-.03-.24-.05.9.47,2.05.89,3.08.74.73-.11,1.32-.49,1.77-1.15.22-.51.34-1.09.34-1.69,0-2.21-1.63-4.02-3.62-4.02"/><path class="cls-1" d="M40.99,77.63h-1.24c-.12,0-.22-.1-.22-.22v-10.73c0-.12.1-.22.22-.22h1.24c.12,0,.22.1.22.22v10.73c0,.12-.1.22-.22.22"/><path class="cls-1" d="M46.86,77.37v-10.43c0-.45.55-.68.87-.35l7.28,7.62v-7.51c0-.14.12-.26.26-.26h1.17c.14,0,.26.12.26.26v10.36c0,.45-.55.67-.86.34l-7.29-7.61v7.57c0,.14-.11.26-.26.26h-1.17c-.14,0-.26-.12-.26-.26"/><path class="cls-1" d="M80.18,77.37v-10.43c0-.45.55-.68.87-.35l7.28,7.62v-7.51c0-.14.12-.26.26-.26h1.17c.14,0,.26.12.26.26v10.36c0,.45-.55.67-.86.34l-7.29-7.61v7.57c0,.14-.11.26-.26.26h-1.17c-.14,0-.26-.12-.26-.26"/><path class="cls-1" d="M74.31,77.63h-1.24c-.12,0-.22-.1-.22-.22v-10.74c0-.12.1-.22.22-.22h1.24c.12,0,.22.1.22.22v10.74c0,.12-.1.22-.22.22"/><path class="cls-1" d="M106.08,68.04v9.33c0,.15-.12.27-.27.27h-1.15c-.15,0-.27-.12-.27-.27v-9.33h-2.31c-.15,0-.26-.12-.26-.26v-1.06c0-.15.12-.26.26-.26h6.29c.15,0,.26.12.26.26v1.06c0,.15-.12.26-.26.26h-2.3Z"/><path class="cls-1" d="M114.25,66.45h-1.37c-.19,0-.31.2-.21.37l3.44,5.98v4.56c0,.15.12.27.27.27h1.15c.15,0,.27-.12.27-.27v-4.56l-.84-1.88-2.48-4.34c-.04-.08-.13-.12-.21-.12"/><path class="cls-1" d="M121,66.45h-1.34c-.09,0-.18.05-.22.13l-2.29,3.99c-.09.16.02.35.2.35h1.39c.08,0,.16-.04.2-.12l2.29-3.96c.1-.17-.02-.39-.22-.39"/><path class="cls-1" d="M67.56,70.72h-1.7c-.27,0-.52.11-.69.31l-.92,1.03c-.08.09-.02.24.11.24h3.2c.13,0,.23-.1.23-.23v-1.13c0-.13-.1-.23-.23-.23"/><path class="cls-1" d="M68.63,66.45h-6.04c-.14,0-.25.11-.25.25v10.65c0,.15.12.27.27.27h1.14c.15,0,.27-.12.27-.27v-9.32h3.27c.25,0,.5-.11.66-.3l.83-.93c.12-.14.02-.36-.16-.36"/><path class="cls-1" d="M97.13,77.63h-1.24c-.12,0-.22-.1-.22-.22v-10.74c0-.12.1-.22.22-.22h1.24c.12,0,.22.1.22.22v10.74c0,.12-.1.22-.22.22"/><path class="cls-2" d="M131.14,72.87c-.27-.49-.64-.86-1.11-1.11.86-.64,1.29-1.46,1.29-2.47s-.33-1.76-.98-2.4c-.65-.64-1.46-.96-2.44-.96s-1.8.32-2.46.96c-.65.64-.98,1.44-.98,2.39,0,1.05.43,1.88,1.29,2.49,0,0,.74.54,2.1.78.53.07,1,.19,1.37.57.38.38.57.84.57,1.39s-.19,1-.57,1.39c-.38.38-.84.57-1.37.57s-1-.19-1.38-.58c-.38-.39-.56-.86-.56-1.4,0-.33.08-.62.23-.89h-.02s-.77-1.58-.77-1.58c-.8.55-1.2,1.39-1.2,2.54,0,1.02.36,1.86,1.07,2.53.71.67,1.6,1.01,2.69,1.01s1.93-.33,2.61-1c.68-.66,1.02-1.52,1.02-2.56,0-.61-.14-1.16-.42-1.64M129.13,70.53c-.34.34-.76.52-1.24.52s-.9-.17-1.25-.52c-.34-.34-.51-.76-.51-1.26,0-.47.17-.87.52-1.22.34-.34.76-.52,1.24-.52s.9.17,1.24.52c.35.35.52.76.52,1.24s-.17.9-.52,1.24"/></svg>