<?xml version="1.0" encoding="UTF-8"?><svg id="Layer_1" xmlns="http://www.w3.org/2000/svg" viewBox="0 0 144 144"><defs><style>.cls-1{fill:#232323;stroke-width:0px;}</style></defs><path class="cls-1" d="M45.42,57.97c.02-.15.04-.29.06-.44.62-4.81,1.19-7.93,1.61-9.87.56-1.14,1.02-1.74,1.02-1.74l9.82,7.13-13.28,18.35c.06-5.51.33-10.04.77-13.43M44.63,72.93l14.53-20.08-11.31-8.06s-13.04,20.64-13.82,22.06c-.63,1.16-1.87,3.45-1.77,5.5.05,1.01.39,2.62,1.03,4.64.7,2.19,8.54,22.17,8.54,22.17h2.81s-.07-14.17,0-26.25"/><rect class="cls-1" x="50.08" y="74.2" width="2.42" height="11.08"/><polygon class="cls-1" points="54.83 85.3 57.24 85.3 57.24 80.81 62.63 80.81 62.63 78.57 57.24 78.57 57.24 76.56 63.36 76.56 63.36 74.2 54.83 74.2 54.83 85.3"/><polygon class="cls-1" points="74.13 82.94 67.94 82.94 67.94 80.81 73.41 80.81 73.41 78.57 67.94 78.57 67.94 76.56 74.13 76.56 74.13 74.2 65.51 74.2 65.51 85.28 74.13 85.28 74.13 82.94"/><polygon class="cls-1" points="56.2 95.9 53.28 88.12 50.08 88.12 50.08 99.21 52.34 99.21 52.34 92.07 55.01 99.21 57.34 99.21 60.03 92.02 60.03 99.19 62.29 99.19 62.29 88.12 59.08 88.12 56.2 95.9"/><path class="cls-1" d="M68.01,95.02l1.17-3.29,1.16,3.29h-2.32ZM70.35,88.13h-2.21l-4.27,11.08h2.66l.66-1.84h3.95l.65,1.84h2.71l-4.15-11.02-.02-.06Z"/><polygon class="cls-1" points="81.78 83.41 77.78 74.29 77.74 74.2 76.22 74.2 76.22 85.29 77.4 85.29 77.4 76.35 81.31 85.2 81.34 85.29 82.21 85.29 86.14 76.27 86.14 85.29 87.33 85.29 87.33 74.2 85.79 74.2 81.78 83.41"/><path class="cls-1" d="M91.71,81.34l1.97-5.25,2,5.25h-3.97ZM94.21,74.3l-.04-.11h-.97l-4.29,11.09h1.3l1.07-2.8h4.84l1.07,2.8h1.32l-4.31-10.99Z"/><path class="cls-1" d="M79.5,98.03h-2.02v-8.74h2.02c3.27,0,4.93,1.47,4.93,4.36,0,2.87-1.71,4.38-4.93,4.38M79.67,88.12h-3.45v11.08h3.45c3.95,0,6.04-1.92,6.04-5.53s-2.14-5.55-6.04-5.55"/><path class="cls-1" d="M91.42,93.59h-2.5v-4.3h2.5c2.11,0,3.23.6,3.23,2.14s-1.15,2.17-3.23,2.17M95.93,91.4c0-2.17-1.69-3.3-4.4-3.3h-3.85v11.08h1.23v-4.47h2.78l2.88,4.41.05.07h1.47s-3.08-4.61-3.08-4.61c1.84-.37,2.92-1.47,2.92-3.18"/><rect class="cls-1" x="98.27" y="88.12" width="1.23" height="11.08"/><path class="cls-1" d="M105.53,98.03h-2.02v-8.74h2.02c3.27,0,4.93,1.47,4.93,4.36,0,2.86-1.71,4.38-4.93,4.38M110.32,89.68c-1.03-1.03-2.59-1.56-4.61-1.56h-3.45v11.08h3.45c2.04,0,3.6-.52,4.63-1.55.93-.93,1.41-2.27,1.4-3.99,0-1.69-.47-3.03-1.42-3.98"/></svg>