<?xml version="1.0" encoding="UTF-8"?><svg id="Layer_1" xmlns="http://www.w3.org/2000/svg" viewBox="0 0 144 144"><defs><style>.cls-1{fill:#858585;}.cls-1,.cls-2,.cls-3,.cls-4,.cls-5,.cls-6,.cls-7{stroke-width:0px;}.cls-2{fill:#535353;}.cls-3{fill:#666;}.cls-4{fill:#191919;}.cls-5{fill:#211f1f;}.cls-6{fill:#8f8f8f;}.cls-7{fill:#6c6c6c;}</style></defs><path class="cls-4" d="M28.72,77.65c-.73-.63-3.9-1.43-4.97-1.67-1.07-.24-1.55-1.33.63-1.31,2.23.03,4.12,1.02,4.12,1.02l.68-1.8s-1.21-.82-4.61-.58c-3.4.25-4.27,1.85-3.54,3.2.73,1.36,4.42,2.04,4.85,2.19.44.15,1.5.09,1.65.82.15.73-1.28.84-2.62.68-1.62-.19-3.35-1.02-3.35-1.02l-.82,1.79c5.73,1.65,7.96.22,8.49-.82.59-1.14.22-1.87-.51-2.5ZM16.46,81.56h2.13v-8.13h-2.13v8.13ZM31.31,81.56h2.13v-8.13h-2.13v8.13ZM35.71,77.29c3.35-2.01,3.78-3.83,3.78-3.83h-2.11c-1.77,2.79-3.85,4-3.85,4,1.31,3.03,3.81,4.13,3.81,4.13h2.96c-3.23-1.99-4.58-4.29-4.58-4.29ZM44.2,73.43l-3.91,8.16h1.72l1.07-2.31s.07-.05.15.07c.07.12.46.73,1.89.73h2.14l.73,1.48h2.4l-3.96-8.13h-2.23ZM43.32,78.82l1.65-3.66,1.7,3.66h-3.35ZM76.97,73.43l-3.9,8.16h1.72l1.07-2.31s.07-.05.15.07c.07.12.46.73,1.89.73h2.14l.73,1.48h2.4l-3.95-8.13h-2.24ZM76.1,78.82l1.65-3.66,1.7,3.66h-3.35ZM59.19,79.47l-5.39-6.01h-2.16v8.15h1.51v-5.44l4.9,5.41h2.67v-8.18h-1.52v6.07ZM67.78,73.41h-4.54v8.2h5.12s4.25-.1,4.25-4.05-4.08-4.15-4.83-4.15ZM67.22,80.3h-1.77v-5.58h1.55c.77,0,3.27.12,3.27,2.98s-3.05,2.59-3.05,2.59ZM90.1,78.07s2.69-.63,2.55-2.72c-.14-2.09-2.77-1.92-2.77-1.92l-5.46.03v8.17h2.18v-6.72h2.3s1.62-.07,1.5,1.17c-.12,1.24-2.01,1.72-2.86,1.82,0,0,1.6,2.67,3.32,3.66h3.13s-2.88-1.94-3.91-3.49Z"/><path class="cls-3" d="M27.22,85.16l-2.78,5.27h.9l.74-1.49s.06-.01.06.02.13.36.86.36h2.23l.62,1.11h1.08l-2.72-5.28h-.99ZM26.18,88.75l1.38-2.7,1.38,2.72h-2.76ZM39.45,85.16l-2.78,5.27h.9l.74-1.49s.06-.01.06.02.13.36.86.36h2.23l.62,1.11h1.08l-2.72-5.28h-1ZM38.41,88.75l1.38-2.7,1.39,2.72h-2.77ZM62.43,85.16h-1l-2.78,5.27h.9l.74-1.49s.06-.01.06.02.13.36.86.36h2.23l.62,1.11h1.08l-2.72-5.28ZM60.39,88.75l1.38-2.7,1.38,2.72h-2.76ZM19.96,88.22l-2.15-3.08h-1.31v5.27h.72v-4.4l2.56,3.68,2.61-3.7v4.43h.97v-5.26h-1.26l-2.14,3.07ZM33.07,85.14h-.97v5.29h4.32v-.61h-3.35v-4.68ZM46,87.67l-2.07-2.54h-1.27l2.69,3.28v2.05h1v-2.12l2.69-3.21h-.96l-2.09,2.55ZM51.74,87.05c-1.24-.33-1.15-.76-1.13-.92.03-.16.16-.48,1.39-.51,1.24-.04,2.51.66,2.51.66l.35-.8c-3.47-.98-5.03-.04-5.13,1.03-.1,1.07,1.38,1.32,2.9,1.73,1.52.4,1.5.85,1.48,1.1-.02.26-.13.56-1.35.58-1.21.03-2.72-.79-2.72-.79l-.38.8c3.28,1.24,4.85.24,5.18-.39.33-.63.08-1.13-.34-1.53-.42-.4-1.54-.63-2.78-.96ZM56.58,90.39h.97v-5.27h-.97v5.27Z"/><polygon class="cls-2" points="113.64 73.39 119.56 81.61 127.54 81.61 113.56 62.97 99.66 81.61 107.52 81.61 113.64 73.39"/><polygon class="cls-6" points="99.66 54.75 105.8 62.97 113.56 62.97 99.59 44.34 85.68 62.97 93.54 62.97 99.66 54.75"/><polygon class="cls-1" points="119.56 81.61 113.56 89.54 107.52 81.61 99.66 81.61 113.64 99.66 127.54 81.61 119.56 81.61"/><polygon class="cls-7" points="93.55 62.97 105.79 62.97 99.59 71.2 93.55 62.97"/><path class="cls-5" d="M115.52,60.43c.09-.2.21-.37.36-.52.15-.15.33-.26.53-.34.2-.08.41-.12.64-.12s.44.04.64.12c.2.08.37.2.52.34.15.15.27.32.36.52.09.2.13.41.13.64s-.04.46-.13.66c-.09.2-.21.37-.36.52-.15.15-.32.26-.52.34-.2.08-.41.12-.64.12s-.44-.04-.64-.12c-.2-.08-.38-.2-.53-.34-.15-.15-.27-.32-.36-.52-.09-.2-.13-.42-.13-.66s.04-.45.13-.64ZM115.79,61.64c.07.17.16.32.29.44.12.13.26.22.43.3.17.07.34.11.54.11s.37-.04.53-.11c.16-.07.31-.17.43-.3.12-.13.22-.27.29-.44.07-.17.1-.36.1-.56s-.03-.38-.1-.55c-.07-.17-.16-.32-.29-.44-.12-.12-.26-.22-.43-.29-.16-.07-.34-.11-.53-.11s-.37.04-.54.11c-.17.07-.31.17-.43.29-.12.12-.22.27-.29.44-.07.17-.1.35-.1.55s.03.39.1.56ZM117.15,60.12c.23,0,.4.05.51.14.11.09.16.23.16.41,0,.17-.05.3-.14.38-.1.08-.22.13-.36.14l.55.85h-.32l-.52-.82h-.32v.82h-.3v-1.92h.74ZM117.01,60.98c.07,0,.13,0,.19,0,.06,0,.11-.02.16-.04.05-.02.08-.05.11-.09.03-.04.04-.1.04-.18,0-.06-.01-.12-.04-.15-.03-.04-.06-.07-.1-.09-.04-.02-.08-.03-.14-.04-.05,0-.1-.01-.15-.01h-.39v.61h.31Z"/></svg>