<?xml version="1.0" encoding="UTF-8"?><svg id="Layer_1" xmlns="http://www.w3.org/2000/svg" viewBox="0 0 144 144"><defs><style>.cls-1{fill-rule:evenodd;}.cls-1,.cls-2{fill:#212121;stroke-width:0px;}</style></defs><path class="cls-1" d="M86.41,40.34c.02,2.12-.07,4.47-.38,6.96l-19.2,19.2c-.74-.14-1.52-.28-2.36-.41-1.14-.18-2.3-.29-3.45-.35l25.39-25.39M48.98,66.72s36.35-36.35,36.37-36.37c0,0,.7,2.87.96,7.3l-28.06,28.05c-5.06.1-9.28,1.02-9.28,1.02M94.12,62.41c-1.19,6.18-3.78,12.88-8.96,18.75,0,0-2.02-1.18-7.4-2.39l16.36-16.36ZM95.02,52.14c.02,2.11-.07,4.47-.38,6.95l-19.2,19.2c-.74-.14-1.53-.28-2.36-.41-1.14-.18-2.3-.29-3.45-.35l25.39-25.39ZM57.59,78.52s36.36-36.35,36.37-36.37c0,0,.7,2.87.96,7.29l-28.05,28.05c-5.06.1-9.28,1.03-9.28,1.03"/><path class="cls-1" d="M80.57,86.32c-1.07,0-1.94.87-1.94,1.94s.87,1.94,1.94,1.94,1.94-.87,1.94-1.94-.87-1.94-1.94-1.94M80.57,89.23c-.54,0-.98-.44-.98-.98s.44-.97.98-.97.97.44.97.97-.44.98-.97.98"/><path class="cls-1" d="M54.43,90.73c-3.01,0-5.37,2.31-5.37,5.26s2.33,5.22,5.37,5.22,5.35-2.3,5.35-5.25-2.35-5.23-5.35-5.23M54.43,99.42c-1.85,0-3.35-1.55-3.35-3.46s1.5-3.44,3.35-3.44,3.34,1.55,3.34,3.44-1.5,3.46-3.34,3.46"/><polygon class="cls-1" points="61.22 100.98 63.17 100.98 63.17 94.2 69.28 101.18 70.63 101.18 70.63 90.95 68.68 90.95 68.68 97.7 62.57 90.73 61.22 90.73 61.22 100.98"/><polygon class="cls-1" points="78.12 92.65 78.12 90.95 72.71 90.95 72.71 100.98 78.12 100.98 78.12 99.28 74.67 99.28 74.67 96.57 78.12 96.57 78.12 94.88 74.67 94.88 74.67 92.65 78.12 92.65"/><polygon class="cls-1" points="84.46 92.65 84.46 100.98 86.41 100.98 86.41 90.95 83.02 90.95 83.02 92.65 84.46 92.65"/><path class="cls-1" d="M94.49,92.65v-1.7h-4.63l-1.19,5.26h.1c.62-.43,1.23-.65,1.92-.65,1.28,0,2.29.89,2.29,2.01,0,1.07-.9,1.92-2.01,1.92-.96,0-1.76-.4-2.51-1.28l-.65,1.7c.9.9,1.89,1.31,3.2,1.31,2.32,0,3.92-1.47,3.92-3.59,0-2-1.46-3.49-3.41-3.49-.23,0-.39.01-.74.06l.39-1.56h3.31Z"/><polygon class="cls-2" points="50.72 103.85 53.95 111.32 57.19 103.85 59 113.25 57.98 113.25 56.84 107.24 56.82 107.24 53.95 113.62 51.09 107.24 51.07 107.24 49.93 113.25 48.91 113.25 50.72 103.85"/><path class="cls-2" d="M61.58,110.73l-1.07,2.52h-1.09l4.11-9.32,4,9.32h-1.1l-1.05-2.52h-3.8ZM63.5,106.25l-1.52,3.56h3.01l-1.49-3.56Z"/><path class="cls-2" d="M69.6,113.25h-.99v-8.9h1.29c1.69,0,3.26.45,3.26,2.45,0,1.37-.86,2.34-2.23,2.45l2.83,3.99h-1.22l-2.69-3.91h-.25v3.91ZM69.6,108.48h.31c1.12,0,2.25-.21,2.25-1.59,0-1.46-1.07-1.6-2.27-1.6h-.3v3.2Z"/><rect class="cls-2" x="75.15" y="104.36" width=".99" height="8.9"/><polygon class="cls-2" points="78.12 103.98 85.06 111.25 85.06 104.36 86.05 104.36 86.05 113.66 79.11 106.4 79.11 113.25 78.12 113.25 78.12 103.98"/><path class="cls-2" d="M89.14,110.73l-1.07,2.52h-1.09l4.11-9.32,4,9.32h-1.1l-1.05-2.52h-3.8ZM91.07,106.25l-1.52,3.56h3.01l-1.49-3.56Z"/></svg>