<?xml version="1.0" encoding="UTF-8"?><svg xmlns="http://www.w3.org/2000/svg" viewBox="0 0 144 144"><defs><style>.cls-1{fill:#212121;stroke-width:0px;}.cls-1,.cls-2{mix-blend-mode:color;}.cls-3{isolation:isolate;}</style></defs><g class="cls-3"><g id="Layer_1"><g class="cls-2"><path class="cls-1" d="M100.58,83.02c1.17,0,2.31-.13,3.43-.49,1.67-.54,3.03-1.48,3.89-3.05.64-1.18.82-2.45.75-3.78-.09-1.68-.75-3.05-2.11-4.07-.91-.68-1.95-1.12-3.01-1.49-1.22-.42-2.48-.68-3.71-1.06-.71-.22-1.42-.45-2.06-.86-.93-.59-.9-1.92-.44-2.51.33-.42.77-.66,1.28-.79,1.04-.27,2.07-.16,3.09.12,1.33.36,2.52,1.02,3.65,1.78.11.07.17.11.26-.03.76-1.11,1.52-2.22,2.3-3.33.1-.14.08-.2-.05-.3-2.22-1.71-4.75-2.56-7.54-2.64-1.38-.04-2.72.12-4.01.64-1.77.73-3.07,1.92-3.73,3.75-.38,1.05-.42,2.13-.31,3.22.16,1.54.82,2.8,2.09,3.72.93.67,1.99,1.08,3.07,1.43,1.19.39,2.41.64,3.6,1.01.75.24,1.49.49,2.15.94.93.63.82,1.98.31,2.56-.37.43-.85.67-1.38.79-1.36.31-2.7.16-4.01-.25-1.4-.43-2.61-1.2-3.73-2.11-.13-.11-.2-.12-.32.03-.84,1.02-1.69,2.04-2.55,3.05-.13.15-.14.23.02.37,2.62,2.21,5.65,3.28,9.07,3.34Z"/><path class="cls-1" d="M127.55,69.32c-.07.35-.12.71-.2,1.06-.57,2.4-2.07,4.01-4.32,4.96-1.27.54-2.61.78-3.98.79-1.26.01-2.52.02-3.77.01-.19,0-.22.06-.22.23,0,2.03,0,4.05,0,6.08,0,.2-.04.25-.25.25-1.45-.01-2.9,0-4.35,0-.18,0-.25-.03-.25-.23,0-7.14,0-14.27,0-21.41,0-.18.04-.23.23-.23,2.99,0,5.98-.01,8.97.01,1.75.01,3.42.38,4.91,1.34,1.79,1.14,2.79,2.8,3.13,4.87.03.16,0,.33.09.48v1.78ZM115.05,68.51c0,1.04,0,2.09,0,3.13,0,.18.04.23.22.23,1.17,0,2.35,0,3.52,0,.32,0,.64-.01.96-.07.85-.15,1.6-.49,2.17-1.15.7-.81.84-1.77.69-2.79-.16-1.05-.73-1.8-1.7-2.24-.53-.24-1.08-.38-1.66-.39-1.35-.02-2.7,0-4.05-.02-.18,0-.15.09-.15.2,0,1.04,0,2.07,0,3.11Z"/><path class="cls-1" d="M88.05,56.11c-.07.09-.04.19-.04.28,0,10.4,0,20.8,0,31.21,0,.22-.04.3-.28.28-.49-.02-.49,0-.49-.5,0-10.33,0-20.65,0-30.98,0-.1.02-.2-.02-.29h.82Z"/><path class="cls-1" d="M100.58,83.02c-3.41-.05-6.45-1.13-9.07-3.34-.17-.14-.15-.22-.02-.37.86-1.01,1.71-2.03,2.55-3.05.12-.14.19-.14.32-.03,1.12.91,2.34,1.68,3.73,2.11,1.31.41,2.65.56,4.01.25.53-.12,1.01-.37,1.38-.79.5-.57.61-1.93-.31-2.56-.66-.45-1.4-.7-2.15-.94-1.19-.37-2.41-.63-3.6-1.01-1.08-.35-2.14-.76-3.07-1.43-1.27-.91-1.93-2.18-2.09-3.72-.12-1.09-.07-2.17.31-3.22.66-1.83,1.96-3.02,3.73-3.75,1.28-.53,2.63-.68,4.01-.64,2.79.08,5.32.93,7.54,2.64.13.1.15.16.05.3-.77,1.1-1.54,2.21-2.3,3.33-.09.14-.15.11-.26.03-1.13-.77-2.32-1.42-3.65-1.78-1.02-.28-2.05-.38-3.09-.12-.51.13-.95.37-1.28.79-.47.58-.5,1.92.44,2.51.64.4,1.35.64,2.06.86,1.23.38,2.49.63,3.71,1.06,1.07.37,2.1.81,3.01,1.49,1.36,1.02,2.03,2.39,2.11,4.07.07,1.32-.11,2.6-.75,3.78-.86,1.57-2.22,2.51-3.89,3.05-1.11.36-2.26.49-3.43.49Z"/><path class="cls-1" d="M34.81,71.13c0-.08,0-.17,0-.25,0-2.63,0-5.27,0-7.9,0-.2.05-.26.25-.25.31.02.63.02.94,0,.22-.02.24.06.24.25,0,1.7,0,3.4,0,5.09,0,1.56,0,3.12,0,4.68,0,.19-.04.24-.24.24-.66-.01-1.33-.01-1.99,0-.17,0-.25-.05-.31-.21-.99-2.6-2-5.2-3-7.8-.03-.08-.04-.17-.12-.24-.05.08-.02.17-.02.24,0,2.58,0,5.16,0,7.74,0,.21-.06.27-.27.26-.33-.02-.66-.01-.98,0-.14,0-.18-.04-.18-.18,0-.43,0-.87,0-1.3,0-2.85,0-5.7,0-8.54,0-.21.06-.25.25-.24.59.01,1.19.01,1.78,0,.16,0,.23.05.29.2,1.08,2.69,2.16,5.38,3.24,8.07.02.05.04.09.06.14.02,0,.03,0,.05,0Z"/><path class="cls-1" d="M70.55,67.87c0-1.64,0-3.27,0-4.91,0-.11-.04-.22.15-.22,1.16.01,2.32,0,3.48.02.37,0,.72.08,1.07.21.72.28,1.14.8,1.27,1.55.13.75.11,1.5.04,2.25-.08.85-.64,1.34-1.37,1.68-.03.02-.07.04-.11.04-.23.04-.21.15-.13.33.61,1.31,1.21,2.63,1.82,3.95q.11.24-.16.24c-.38,0-.76,0-1.14,0-.16,0-.24-.04-.31-.19-.58-1.3-1.18-2.6-1.76-3.9-.07-.14-.14-.2-.3-.19-.24.02-.47.02-.71,0-.19-.01-.26.03-.25.24.01,1.26,0,2.53.01,3.79,0,.2-.05.26-.25.25-.37-.02-.75-.02-1.12,0-.18,0-.23-.05-.23-.23,0-1.64,0-3.27,0-4.91ZM72.14,65.72c0,.47,0,.94,0,1.42,0,.08-.02.17.11.17.65-.02,1.31.04,1.96-.04.49-.06.76-.35.78-.85.02-.43.02-.85,0-1.28-.03-.62-.39-.96-1.01-.97-.56-.01-1.13,0-1.69,0-.14,0-.16.05-.16.17,0,.46,0,.93,0,1.39Z"/><path class="cls-1" d="M61.64,67.89c0-.69.02-1.39,0-2.08-.06-1.46.86-2.7,2.37-3.07,1.06-.26,2.12-.24,3.11.28,1.04.54,1.6,1.41,1.62,2.59.02,1.51.01,3.03,0,4.54-.01,1.58-1.16,2.8-2.78,2.97-.82.09-1.63.08-2.41-.21-1.22-.46-1.9-1.45-1.9-2.75,0-.75,0-1.51,0-2.26ZM67.16,67.91c0-.72,0-1.43,0-2.15,0-.83-.47-1.45-1.27-1.68-.37-.11-.74-.09-1.11-.06-.91.08-1.55.74-1.56,1.63-.01,1.48-.01,2.97,0,4.45,0,.87.46,1.41,1.29,1.58.38.08.77.09,1.16.03,1.02-.15,1.48-.67,1.49-1.7,0-.7,0-1.4,0-2.1Z"/><path class="cls-1" d="M43.45,65.11c-.28-.31-.58-.59-.93-.8-.73-.44-1.71-.39-2.34.11-.38.3-.57.69-.58,1.17,0,1.54,0,3.08,0,4.61,0,.68.35,1.18.99,1.39.82.27,1.63.25,2.38-.25.11-.07.15-.15.14-.28,0-.7,0-1.4,0-2.1,0-.15-.05-.19-.19-.19-.49,0-.98,0-1.46,0-.13,0-.17-.03-.17-.16,0-.33,0-.67,0-1.01,0-.12.04-.15.16-.15,1.02,0,2.04,0,3.07,0,.12,0,.16.04.16.16,0,1.39,0,2.77,0,4.16,0,.08,0,.14-.08.2-1.4,1.22-3.21,1.5-4.76.89-1.2-.48-1.77-1.43-1.79-2.69-.03-1.52-.02-3.05,0-4.57.02-1.18.58-2.08,1.65-2.59,1.41-.66,2.8-.6,4.09.35.22.16.4.37.58.58.07.08.06.13-.01.21-.3.31-.59.63-.9.96Z"/><path class="cls-1" d="M49.63,62.69c.24,0,.49.01.73,0,.16-.01.22.05.26.2.41,1.52.82,3.03,1.23,4.55.48,1.78.96,3.56,1.45,5.34.06.22,0,.24-.19.23-.39-.01-.78-.01-1.17,0-.16,0-.22-.05-.26-.2-.2-.76-.41-1.53-.6-2.29-.04-.15-.09-.22-.27-.22-.8.01-1.6.01-2.4,0-.18,0-.25.05-.3.22-.2.77-.42,1.54-.62,2.31-.04.14-.09.18-.23.18-.4,0-.79,0-1.19,0q-.26,0-.19-.25c.44-1.59.88-3.17,1.32-4.76.47-1.7.95-3.41,1.42-5.11.04-.15.09-.21.26-.2.25.02.5,0,.75,0ZM49.62,64.5s-.03,0-.04,0c-.36,1.49-.71,2.98-1.07,4.49.69,0,1.37,0,2.05,0,.15,0,.1-.08.08-.16-.23-.98-.46-1.95-.69-2.93-.11-.47-.22-.94-.33-1.41Z"/><path class="cls-1" d="M17.65,70.32c.13.24.25.47.42.68.29.36.66.58,1.11.66.49.08.97.07,1.44-.1.33-.12.53-.34.62-.68.12-.5.06-.96-.33-1.34-.35-.34-.77-.59-1.2-.83-.77-.42-1.51-.89-2.13-1.51-1.11-1.11-.92-2.88-.19-3.69.44-.49,1-.73,1.63-.85,1.37-.25,2.54.13,3.51,1.13.13.13.15.22.02.37-.25.27-.47.56-.69.85-.09.12-.14.11-.23,0-.42-.45-.9-.82-1.51-.97-.37-.09-.74-.05-1.1.07-.73.25-.79,1.37-.33,1.81.5.48,1.09.81,1.69,1.15.7.4,1.42.79,1.92,1.44.69.88.75,1.89.4,2.9-.34.98-1.13,1.47-2.13,1.64-.96.16-1.9.07-2.78-.37-.59-.29-1-.75-1.31-1.32-.05-.09-.04-.13.04-.19.38-.28.75-.57,1.13-.86Z"/><path class="cls-1" d="M56.3,71.05c0,.59,0,1.19,0,1.78,0,.14-.04.18-.18.18-.4,0-.81-.01-1.21,0-.17,0-.2-.06-.2-.21,0-3.29,0-6.58,0-9.87,0-.12,0-.19.17-.19.99.01,1.98-.01,2.97.02.89.03,1.66.33,2.13,1.14.22.38.3.79.3,1.23,0,.54,0,1.08,0,1.62,0,1.28-.81,2.16-2.09,2.31-.53.06-1.05.02-1.58.03-.33,0-.33,0-.33.34,0,.54,0,1.08,0,1.62ZM56.3,65.91c0,.53,0,1.07,0,1.6,0,.06-.05.17.09.16.56-.02,1.11.06,1.67-.05.43-.08.65-.35.66-.8.01-.55.02-1.1,0-1.64-.02-.67-.39-1.01-1.06-1.02-.39,0-.78,0-1.17,0-.17,0-.19.06-.19.21,0,.52,0,1.04,0,1.55Z"/><path class="cls-1" d="M78.37,67.85c0-1.63,0-3.26,0-4.89,0-.18.04-.23.22-.22,1.47,0,2.94,0,4.41,0,.18,0,.23.05.22.23-.01.33-.02.66,0,.98.01.19-.07.22-.23.22-.96,0-1.92,0-2.88,0-.16,0-.22.03-.21.21.01.85,0,1.69,0,2.54,0,.17.03.23.22.23.79-.01,1.59,0,2.38,0,.16,0,.21.03.2.2-.01.32-.01.64,0,.96,0,.17-.05.19-.21.19-.79,0-1.59,0-2.38,0-.17,0-.22.03-.22.21.01.91.01,1.81,0,2.72,0,.19.06.22.23.22,1.05,0,2.1,0,3.16,0,.17,0,.22.04.21.21-.01.34,0,.69,0,1.03,0,.13-.04.17-.17.17-1.6,0-3.2,0-4.8,0-.19,0-.16-.11-.16-.22,0-1.64,0-3.29,0-4.93Z"/><path class="cls-1" d="M74.05,79.88v-.21c0-1.72,0-3.44,0-5.16,0-.17.03-.25.22-.23.24.03.56-.1.7.05.12.13.04.45.04.69,0,1.96,0,3.93,0,5.89,0,.21-.06.26-.25.25-.39-.02-.78-.02-1.17,0-.17,0-.25-.05-.31-.21-.65-1.71-1.31-3.41-1.97-5.12-.02-.05-.04-.11-.1-.16,0,.08,0,.15,0,.23,0,1.68,0,3.35,0,5.03,0,.19-.05.25-.24.24-.19-.02-.38-.01-.57,0-.13,0-.15-.04-.15-.16,0-2.19,0-4.37,0-6.56,0-.13.04-.17.17-.16.38,0,.76.01,1.14,0,.16,0,.22.05.28.19.69,1.73,1.38,3.45,2.08,5.17.03.08.07.16.1.24.01,0,.02,0,.04,0Z"/><path class="cls-1" d="M33.86,77.71c0-.46,0-.91,0-1.37,0-1.14.69-1.95,1.83-2.12.7-.11,1.39-.06,2,.33.62.39.93.97.93,1.7,0,.94,0,1.87,0,2.81,0,1.27-.75,2.09-2.03,2.18-.54.04-1.08.02-1.59-.21-.71-.32-1.1-.88-1.13-1.65-.03-.55,0-1.11,0-1.67h0ZM34.92,77.71c0,.51,0,1.02,0,1.53,0,.5.26.85.72.99.34.1.69.11,1.04.03.58-.12.86-.47.86-1.06,0-.98,0-1.96,0-2.94,0-.46-.23-.78-.62-.99-.31-.16-.64-.18-.98-.13-.67.09-1.03.51-1.03,1.2,0,.46,0,.91,0,1.37Z"/><path class="cls-1" d="M64.3,77.7c0-1.07,0-2.15,0-3.22,0-.16.04-.21.2-.2.2.01.4.02.59,0,.19-.01.24.04.24.23-.01.87,0,1.74,0,2.6,0,.17.03.24.22.23.67-.01,1.34-.01,2.01,0,.18,0,.21-.05.21-.22,0-.88,0-1.77,0-2.65,0-.16.04-.21.2-.2.2.01.41.02.62,0,.18-.01.23.04.23.23,0,1.6,0,3.2,0,4.8,0,.56,0,1.11,0,1.67,0,.15-.04.2-.19.19-.22-.01-.44-.01-.66,0-.15,0-.19-.04-.19-.19,0-.82,0-1.64,0-2.47,0-.17-.05-.22-.22-.21-.66.01-1.33.01-1.99,0-.19,0-.25.04-.24.23.01.81,0,1.61,0,2.42,0,.17-.03.23-.21.22-.21-.02-.43-.01-.64,0-.16.01-.19-.05-.19-.19,0-1.09,0-2.18,0-3.27Z"/><path class="cls-1" d="M26.48,67.86c0,1.64,0,3.27,0,4.91,0,.19-.05.24-.24.24-.38-.01-.76-.01-1.14,0-.18,0-.21-.05-.21-.22,0-2.59,0-5.18,0-7.77,0-.69,0-1.39,0-2.08,0-.18.05-.21.22-.21.39.01.78.01,1.17,0,.17,0,.22.04.22.21,0,1.64,0,3.27,0,4.91Z"/><path class="cls-1" d="M29.23,77.7c0-1.07,0-2.13,0-3.2,0-.18.05-.23.23-.23.68.02,1.36-.03,2.03.02.89.07,1.45.65,1.48,1.55.01.37,0,.75,0,1.12,0,.86-.56,1.46-1.42,1.54-.36.03-.72.03-1.07.02-.14,0-.18.04-.18.18,0,.74,0,1.48,0,2.22,0,.2-.06.25-.24.23-.2-.02-.4-.02-.59,0-.19.02-.24-.04-.24-.23.01-1.07,0-2.15,0-3.22ZM30.3,76.38c0,.35,0,.7,0,1.05,0,.07-.02.16.1.16.36-.01.72.03,1.07-.04.27-.06.42-.23.43-.51,0-.39.01-.78,0-1.16-.01-.38-.21-.59-.59-.63-.3-.03-.61-.01-.91-.02-.12,0-.1.08-.1.15,0,.33,0,.67,0,1Z"/><path class="cls-1" d="M54.53,77.72c0-1.07,0-2.15,0-3.22,0-.18.05-.23.23-.23.94,0,1.88,0,2.81,0,.17,0,.24.04.22.21-.03.24.1.56-.05.7-.13.12-.45.04-.69.04-.43,0-.87,0-1.3,0-.13,0-.19.01-.19.17.01.56,0,1.11,0,1.67,0,.12.04.15.15.15.51,0,1.02,0,1.53,0,.15,0,.2.04.19.19-.02.23.07.52-.04.66-.12.15-.43.04-.65.05-.34,0-.67.01-1.01,0-.15,0-.18.04-.17.18,0,.59,0,1.17,0,1.76,0,.13.04.16.16.16.68,0,1.36,0,2.04,0,.18,0,.22.05.21.22-.01.18-.01.37,0,.55.01.17-.05.2-.21.2-1.01,0-2.01,0-3.02,0-.17,0-.22-.04-.21-.21,0-1.07,0-2.15,0-3.22Z"/><path class="cls-1" d="M59.92,77.73c0,.45.01.9,0,1.35-.03,1.09.65,1.32,1.53,1.18.32-.05.58-.23.79-.47.1-.12.16-.11.25.02.12.17.25.32.39.48.09.1.1.16-.01.27-.9.87-2.21.81-2.96.48-.71-.32-1.03-.92-1.04-1.66-.02-1.09-.02-2.18,0-3.26.02-1.01.72-1.76,1.73-1.9.46-.06.91-.05,1.36.09.42.13.74.41,1.01.75.07.09.04.14-.03.2-.16.15-.32.3-.47.47-.1.11-.15.1-.23-.02-.24-.31-.56-.5-.96-.57-.79-.13-1.33.3-1.35,1.1-.01.49,0,.99,0,1.48Z"/><path class="cls-1" d="M79.36,77.74c0-.52,0-1.04,0-1.55,0-1.04.7-1.82,1.73-1.97.39-.06.77-.04,1.16.04.51.11.9.4,1.21.8.07.09.05.14-.02.2-.16.15-.31.29-.46.45-.1.11-.16.12-.27-.01-.33-.42-.77-.61-1.31-.56-.62.05-.97.43-.98,1.05-.01,1.03-.01,2.06,0,3.08,0,.65.36.99,1.01,1.03.52.04.96-.13,1.32-.5.09-.1.15-.12.24,0,.13.18.27.35.42.51.08.08.08.13,0,.22-.76.76-2.21.97-3.14.43-.64-.37-.88-.96-.89-1.67-.01-.52,0-1.04,0-1.55Z"/><path class="cls-1" d="M46.28,77.29c.45-.97.89-1.89,1.31-2.82.07-.15.15-.2.31-.19.3.01.6,0,.94,0-.25.51-.49.99-.72,1.47-.42.84-.83,1.69-1.25,2.53-.05.1-.06.2-.06.31,0,.78,0,1.57,0,2.35,0,.15-.03.22-.2.21-.23-.01-.46-.01-.69,0-.15,0-.19-.04-.19-.19,0-.77,0-1.54,0-2.31,0-.16-.03-.3-.1-.44-.61-1.23-1.2-2.47-1.81-3.7-.12-.24-.12-.24.13-.24.3,0,.67-.11.89.05.21.15.27.51.4.78.31.66.61,1.32.91,1.99.02.05.05.11.1.2Z"/><path class="cls-1" d="M51.99,78.21c0,.91,0,1.83,0,2.74,0,.15-.03.22-.2.21-.23-.01-.46-.01-.69,0-.15,0-.19-.04-.19-.19,0-.75,0-1.49,0-2.24,0-1.1,0-2.19,0-3.29,0-.17-.03-.22-.21-.22-.45.01-.9,0-1.35,0-.12,0-.18-.02-.17-.16.01-.21,0-.43,0-.64,0-.12.04-.15.16-.15,1.4,0,2.8,0,4.21,0,.12,0,.16.04.16.16,0,.21-.01.41,0,.62,0,.14-.04.18-.18.18-.45,0-.9,0-1.35,0-.16,0-.2.04-.2.2,0,.93,0,1.86,0,2.79Z"/><path class="cls-1" d="M39.84,77.72c0-1.06,0-2.12,0-3.17,0-.23.07-.29.28-.27.18.02.37.02.55,0,.17-.01.21.04.21.21,0,1.51,0,3.01,0,4.52,0,.33,0,.65,0,.98,0,.16.03.22.21.21.72-.01,1.45,0,2.17-.01.2,0,.25.06.23.24-.02.16-.02.32,0,.48.02.18-.03.25-.23.24-1.06-.01-2.12-.01-3.18,0-.2,0-.23-.06-.23-.24,0-1.07,0-2.13,0-3.2Z"/><path class="cls-1" d="M76.75,77.71c0-1.05,0-2.1,0-3.15,0-.25.07-.31.3-.29.2.02.4.01.59,0,.15,0,.18.04.18.18,0,2.18,0,4.35,0,6.53,0,.15-.05.18-.19.17-.23,0-.46-.01-.69,0-.17.01-.2-.05-.2-.2,0-1.08,0-2.16,0-3.24Z"/></g></g></g></svg>