<?xml version="1.0" encoding="UTF-8"?><svg id="Layer_1" xmlns="http://www.w3.org/2000/svg" viewBox="0 0 144 144"><defs><style>.cls-1{fill:#212121;stroke-width:0px;}</style></defs><polygon class="cls-1" points="91.02 47.04 92.79 48.39 92.58 45.57 91.02 44.33 91.02 47.04"/><polygon class="cls-1" points="91.02 51.43 93.12 52.93 92.9 49.91 91.02 48.51 91.02 51.43"/><polygon class="cls-1" points="92.19 40.32 92.03 38.21 91.02 37.31 91.02 39.31 92.19 40.32"/><polygon class="cls-1" points="93.48 57.72 93.24 54.47 91.02 52.93 91.02 56.12 93.48 57.72"/><polygon class="cls-1" points="92.48 44.24 92.29 41.62 91.02 40.55 91.02 43.06 92.48 44.24"/><polygon class="cls-1" points="94.36 69.49 94.06 65.57 91.02 63.88 91.02 67.8 94.36 69.49"/><polygon class="cls-1" points="93.61 59.49 91.02 57.86 91.02 61.31 93.87 62.98 93.61 59.49"/><path class="cls-1" d="M91.02,67.8s-17.1-.42-40.61,9.64c0,0,19.61-12.93,40.61-13.57v3.92Z"/><path class="cls-1" d="M91.02,61.31s-15.41-.04-39.73,12.48c0,0,18.23-14.66,39.73-15.93v3.45Z"/><path class="cls-1" d="M91.02,56.12s-13.27-.56-36.16,11.95c0,0,16.65-13.73,36.16-15.13v3.18Z"/><path class="cls-1" d="M91.02,51.43s-14.07-.67-36.09,13.27c0,0,16.62-15.49,36.09-16.2v2.93Z"/><path class="cls-1" d="M91.02,47.04s-11.71-1.21-31.94,11.44c0,0,15.08-14.08,31.94-14.15v2.71Z"/><path class="cls-1" d="M91.02,43.06s-13.34-1.1-32.24,12.79c0,0,15.69-15.51,32.24-15.29v2.5Z"/><path class="cls-1" d="M91.02,39.31s-11.22-1.66-27.98,10.87c0,0,12.75-13.55,27.98-12.86v2Z"/><path class="cls-1" d="M66.79,83.16c12.22,2.27,18.61,3.13,24.23,2,.08-1.88,0-14.12,0-14.12,0,0-24.12-.02-42.92,10.32l-1.68,4.08c1.37-1.13,6.79-4.52,20.37-2.29Z"/><path class="cls-1" d="M95.42,83.85l-.83-11.14-3.57-1.66v14.12c1.47-.29,2.94-.73,4.39-1.32Z"/><polygon class="cls-1" points="74.35 94.08 78.66 94.08 78.66 106.47 81.87 106.47 81.87 94.08 86.23 94.08 86.23 91.54 74.35 91.54 74.35 94.08"/><polygon class="cls-1" points="91.56 103.93 91.56 91.54 88.35 91.54 88.35 106.47 97.58 106.47 97.58 103.93 91.56 103.93"/><path class="cls-1" d="M52.92,97.74c-1.92-.71-3.09-1.2-3.09-2.35,0-.82.78-1.66,2.52-1.66.06,0,.13,0,.19,0,.48.02,1.77.11,2.82.62.24.12.51.28.74.47.04.03.08.06.11.09v-2.95l-.1-.04c-1.05-.42-2.3-.64-3.72-.64-3.49,0-5.84,1.77-5.84,4.4,0,1.97,1.4,3.41,4.28,4.39,1.74.57,2.81,1.16,2.81,2.31s-1.03,1.86-2.74,1.86c-.06,0-.13,0-.19,0-.33-.01-1.04-.05-1.85-.24-.26-.06-.5-.13-.72-.2-.01,0-.02-.01-.03-.01-.02,0-.04-.01-.06-.02-.56-.19-1.13-.45-1.63-.82v2.91l.09.04c.84.37,2.43.81,4.18.81,4.59,0,6.22-2.35,6.22-4.56,0-2.07-1.23-3.44-4-4.41Z"/><path class="cls-1" d="M69.02,103.91c-.13.09-.33.2-.62.29-.13.04-.84.28-1.98.28-1.47,0-2.54-.45-3.11-1.21l-.11-.15c-.49-.7-.74-1.71-.74-3v-8.54h-3.19v8.29c0,3.32,1.13,5.45,3.36,6.32h.03c.08.04.18.08.31.12.1.03.21.07.35.1.07.02.14.03.21.05h.02c.67.16,1.44.23,2.29.23,1.02,0,2.09-.13,3.18-.38v-2.4Z"/><path class="cls-1" d="M69.02,91.54v12.37s.78,1.69,2.84,2.56v-14.93h-2.84Z"/></svg>