<svg width="32" height="32" viewBox="0 0 32 32" fill="none" xmlns="http://www.w3.org/2000/svg">
<g clip-path="url(#clip0_6_3)">
<path d="M17.0084 24.0329L22.4548 18.5865C22.8298 18.2115 22.8298 17.6043 22.4548 17.2472C22.0798 16.8722 21.4727 16.8722 21.1156 17.2472L17.2762 21.0865L17.2762 8.30071C17.2763 7.78291 16.8477 7.35433 16.3299 7.35432C15.812 7.3543 15.3834 7.78288 15.3834 8.30075L15.3834 21.0686L11.5442 17.2472C11.1691 16.8721 10.562 16.8721 10.2049 17.2472C10.0263 17.4258 9.91915 17.6758 9.91915 17.9258C9.91908 18.1757 10.0084 18.4079 10.2048 18.6043L15.6691 24.0686C15.8477 24.2472 16.0977 24.3543 16.3477 24.3543C16.5798 24.3186 16.8299 24.2114 17.0084 24.0329Z" fill="black"/>
</g>
<defs>
<clipPath id="clip0_6_3">
<rect width="22" height="22" fill="white" transform="translate(31.5341 15.5563) rotate(135)"/>
</clipPath>
</defs>
</svg>
