<?xml version="1.0" encoding="UTF-8"?>
<svg id="Layer_1" data-name="Layer 1" xmlns="http://www.w3.org/2000/svg" viewBox="0 0 216.15 140.56">
  <g>
    <path d="M2.51,113.99l20.89-1.67c1.17,7.19,8.02,11.53,18.21,11.53,14.37,0,22.89-8.52,22.89-22.73v-11.2c-5.01,10.86-14.71,17.21-27.41,17.21C15.54,107.14,0,88.59,0,62.69S15.37,18.24,37.1,18.24c12.7,0,22.39,6.35,27.41,17.21v-14.54h19.22V97.78c0,26.74-15.71,42.78-42.11,42.78-22.22,0-39.1-11.53-39.1-26.57Zm39.6-23.56c13.37,0,22.39-11.03,22.39-27.74s-9.02-27.74-22.39-27.74-22.39,11.03-22.39,27.74,9.02,27.74,22.39,27.74Z"/>
    <polygon points="149.32 20.75 129.38 20.75 129.38 0 110.29 0 110.29 20.75 90.36 20.75 90.36 39.83 110.29 39.83 110.29 58.97 129.38 58.97 129.38 39.83 149.32 39.83 149.32 20.75"/>
  </g>
  <path d="M203.42,88.49c-5.66,0-8.49-2.83-8.49-8.49v-10.58l.05,.52v-30.1h19.94V20.75h-19.94V0h-19.15V20.75h-19.88v19.09h19.88v42c0,15.13,7.92,22.63,24.05,22.63h16.27v-15.98h-12.73Z"/>
</svg>