<svg width="144" height="36" viewBox="0 0 144 36" fill="none" xmlns="http://www.w3.org/2000/svg">
<path d="M0.628045 28.9383L5.85508 28.5204C6.14784 30.3195 7.86182 31.4054 10.4115 31.4054C14.0072 31.4054 16.139 29.2736 16.139 25.718V22.9155C14.8854 25.6329 12.4583 27.2218 9.28056 27.2218C3.88838 27.2243 0 22.5828 0 16.1021C0 9.62151 3.84584 4.97998 9.28306 4.97998C12.4608 4.97998 14.8854 6.56886 16.1415 9.28622V5.64806H20.9507V24.8823C20.9507 31.5731 17.0198 35.5865 10.414 35.5865C4.85421 35.5865 0.630547 32.7015 0.630547 28.9383H0.628045ZM10.5366 23.0432C13.8821 23.0432 16.139 20.2833 16.139 16.1021C16.139 11.921 13.8821 9.16111 10.5366 9.16111C7.19124 9.16111 4.93428 11.921 4.93428 16.1021C4.93428 20.2833 7.19124 23.0432 10.5366 23.0432Z" fill="black"/>
<path d="M29.7032 5.64795H24.894V26.5536H29.7032V5.64795Z" fill="black"/>
<path d="M43.5552 9.16111C40.46 9.16111 38.3707 12.0886 38.3707 16.3949V26.5562H33.5615V5.64806H38.3707V9.53643C39.7094 6.77654 42.3842 4.97998 45.6045 4.97998C49.7431 4.97998 52.0851 7.82245 52.0851 12.7993V26.5562H47.2759V13.675C47.2759 10.8326 45.8972 9.15861 43.5552 9.15861V9.16111Z" fill="black"/>
<path d="M70.1685 16.1447C70.1685 9.62151 74.5598 4.97998 80.7476 4.97998C86.9355 4.97998 91.2843 9.62151 91.2843 16.1447C91.2843 22.6678 86.9355 27.2243 80.7476 27.2243C74.5598 27.2243 70.1685 22.6253 70.1685 16.1447ZM80.7476 23.0432C84.1756 23.0432 86.3925 20.3258 86.3925 16.1447C86.3925 11.9635 84.1356 9.16111 80.7476 9.16111C77.3597 9.16111 75.1027 11.921 75.1027 16.1447C75.1027 20.3683 77.3197 23.0432 80.7476 23.0432Z" fill="black"/>
<path d="M103.778 9.16105C100.683 9.16105 98.5934 12.0886 98.5934 16.3948V26.5561H93.7842V5.6505H98.5934V9.53888C99.932 6.77898 102.607 4.98242 105.827 4.98242C109.966 4.98242 112.308 7.82489 112.308 12.8017V26.5586H107.499V13.6775C107.499 10.835 106.12 9.16105 103.778 9.16105Z" fill="black"/>
<path d="M120.867 5.65051H116.058V26.5562H120.867V5.65051Z" fill="black"/>
<path d="M123.47 16.2272C123.47 9.41133 127.651 4.97998 134.049 4.97998C139.526 4.97998 143.457 8.32538 144 13.4673L138.858 13.8852C138.355 10.75 136.726 9.16111 134.049 9.16111C130.703 9.16111 128.697 11.7534 128.697 16.1847C128.697 20.616 130.621 23.0432 134.049 23.0432C136.724 23.0432 138.398 21.4968 138.858 18.5693L144 18.9871C143.457 24.004 139.651 27.2243 134.049 27.2243C127.611 27.2243 123.47 22.9606 123.47 16.2272Z" fill="black"/>
<path d="M63.5023 20.4309V17.7836L63.5148 17.9137V16.8328H58.7231V20.8913C58.7231 24.6796 60.7049 26.5537 64.7409 26.5537H68.5041V22.5552H65.6266C64.2104 22.5552 63.5023 21.8471 63.5023 20.4309Z" fill="black"/>
<path d="M63.515 5.60546V0.413452H63.5025H58.7384H58.7233V5.60546H53.749V10.3821H58.7233V15.1688H63.515V10.3821H68.5043V10.1119V6.1134V5.60546H63.515Z" fill="black"/>
</svg>
